<?xml version="1.0" standalone="no"?>
<!DOCTYPE svg PUBLIC "-//W3C//DTD SVG 20010904//EN"
 "http://www.w3.org/TR/2001/REC-SVG-20010904/DTD/svg10.dtd">
<svg version="1.0" xmlns="http://www.w3.org/2000/svg"
 width="1288.000000pt" height="1288.000000pt" viewBox="0 0 1288.000000 1288.000000"
 preserveAspectRatio="xMidYMid meet">
<metadata>
Created by potrace 1.11, written by Peter Selinger 2001-2013
</metadata>
<g transform="translate(0.000000,1288.000000) scale(0.100000,-0.100000)"
fill="#000000" stroke="none">
<path d="M9178 12876 c-1 -2 -55 -6 -118 -10 -63 -3 -124 -8 -135 -10 -11 -2
-41 -6 -66 -10 -62 -9 -101 -16 -119 -21 -8 -2 -31 -7 -50 -10 -99 -16 -407
-110 -497 -151 -17 -7 -33 -14 -36 -14 -7 0 -139 -60 -242 -110 -183 -90 -446
-255 -590 -371 -421 -341 -697 -716 -790 -1074 -63 -242 -49 -441 45 -630 126
-256 383 -421 750 -481 106 -18 356 -23 495 -11 74 7 225 32 375 63 37 8 214
62 307 94 176 62 418 174 586 271 113 67 313 204 417 288 123 98 350 324 431
426 179 228 310 487 348 685 20 103 21 115 21 210 3 492 -386 826 -995 856
-60 3 -115 7 -122 9 -6 2 -13 2 -15 1z"/>
<path d="M3355 9864 c-38 -18 -115 -54 -170 -80 -55 -26 -169 -80 -253 -121
-85 -40 -155 -73 -157 -73 -2 0 -82 -38 -180 -85 -97 -47 -178 -85 -180 -85
-1 0 -91 -43 -200 -95 -108 -52 -198 -95 -200 -95 -2 0 -83 -38 -180 -85 -98
-47 -178 -85 -180 -85 -1 0 -72 -33 -156 -74 -265 -126 -319 -152 -499 -236
-96 -45 -178 -85 -182 -88 -4 -4 68 -7 160 -8 146 0 173 -3 213 -21 104 -47
179 -154 187 -268 4 -65 11 -34 -163 -720 -53 -209 -98 -387 -100 -395 -5 -22
-327 -1298 -391 -1550 -30 -118 -57 -222 -59 -230 -1 -8 -8 -35 -15 -60 -7
-25 -13 -52 -15 -60 -2 -8 -29 -116 -60 -240 -31 -124 -58 -232 -60 -240 -2
-8 -31 -123 -65 -255 -34 -132 -73 -283 -85 -335 -13 -52 -40 -162 -61 -243
-20 -81 -34 -151 -30 -154 8 -9 4191 -7 4246 2 126 19 231 74 401 207 682 535
1150 1123 1326 1668 25 76 30 95 39 140 3 14 9 41 14 60 19 79 28 161 31 290
l2 95 -983 0 -982 0 -23 -90 c-134 -530 -466 -1058 -870 -1384 -323 -261 -739
-445 -1155 -511 -41 -6 -86 -13 -100 -16 -14 -2 -56 -7 -95 -10 -38 -3 -73 -8
-76 -10 -5 -3 4 41 26 126 5 22 76 302 80 320 5 21 35 142 40 160 20 79 418
1679 420 1690 2 8 38 152 80 320 42 168 78 312 80 320 2 8 150 604 330 1323
180 720 325 1310 323 1312 -2 1 -34 -13 -73 -31z"/>
<path d="M10130 9863 c-41 -19 -111 -52 -155 -73 -44 -21 -206 -97 -360 -170
-154 -73 -320 -152 -370 -175 -103 -48 -438 -207 -565 -267 -47 -22 -130 -62
-185 -88 -55 -26 -138 -66 -185 -88 -47 -22 -173 -81 -280 -132 -299 -141
-339 -160 -349 -160 -5 0 -14 -7 -21 -15 -7 -8 -20 -15 -30 -15 -10 0 -22 -6
-28 -12 -8 -10 24 -13 156 -14 147 -1 173 -4 213 -23 96 -44 173 -150 183
-254 5 -42 0 -80 -18 -162 -9 -44 -228 -902 -236 -930 -5 -16 -11 -41 -14 -55
-3 -14 -7 -34 -10 -45 -40 -154 -118 -464 -121 -475 -2 -8 -22 -89 -45 -180
-23 -91 -43 -172 -45 -180 -2 -8 -47 -184 -99 -390 -188 -739 -437 -1725 -442
-1749 -3 -14 -14 -57 -25 -97 -11 -40 -22 -81 -23 -91 -2 -10 -11 -45 -19 -77
-9 -33 -14 -62 -12 -65 4 -8 1653 -6 1661 1 5 5 26 83 40 148 3 14 23 97 45
185 23 88 42 167 44 175 2 8 18 71 35 140 18 69 33 132 35 140 2 8 27 107 55
220 29 113 53 212 55 220 2 8 20 80 40 160 20 80 38 152 40 160 2 8 63 251
135 540 72 289 133 532 135 540 2 8 159 641 350 1405 191 765 348 1397 350
1405 6 28 46 185 55 220 24 85 89 354 87 357 -2 1 -36 -14 -77 -34z"/>
<path d="M12545 6615 c-558 -103 -1112 -392 -1506 -785 -365 -365 -624 -852
-735 -1385 -18 -85 -44 -242 -49 -300 -4 -38 -9 -78 -11 -88 -1 -9 -6 -54 -10
-99 l-7 -81 39 6 c58 10 81 15 174 37 88 22 358 109 413 134 18 8 66 29 107
46 223 93 539 286 726 443 380 320 633 692 786 1151 28 85 80 291 93 366 27
163 33 212 41 325 5 72 12 246 10 244 -1 0 -32 -7 -71 -14z"/>
<path d="M6790 1933 c-55 -18 -97 -55 -121 -108 -44 -95 -1 -198 107 -253 29
-15 140 -17 191 -3 46 13 120 78 128 114 18 80 9 130 -32 185 -51 68 -176 98
-273 65z"/>
<path d="M8480 1135 l0 -655 195 0 c179 0 195 1 195 18 1 9 2 141 3 292 3 310
5 323 74 355 85 41 181 -2 197 -87 3 -13 5 -148 5 -301 l1 -277 197 2 196 3 0
316 c0 336 -3 377 -33 459 -50 137 -162 219 -310 225 -117 4 -199 -25 -280
-101 l-47 -44 1 225 1 225 -197 0 -198 0 0 -655z"/>
<path d="M347 1732 c-15 -3 -16 -53 -16 -628 l0 -624 387 2 387 3 0 148 1 147
-191 0 -190 0 0 475 0 475 -60 1 c-243 3 -303 4 -318 1z"/>
<path d="M2648 1732 l-36 -3 0 -625 0 -624 199 0 198 0 -2 295 c-1 162 0 295
3 295 3 0 36 -102 75 -228 38 -125 79 -256 91 -292 l21 -65 169 -3 170 -2 17
57 c90 298 160 519 165 525 4 4 7 -124 7 -285 l0 -292 196 -3 196 -2 0 625 0
625 -36 1 c-20 0 -128 1 -241 1 l-204 0 -131 -366 c-71 -201 -132 -366 -135
-366 -3 0 -65 164 -139 365 l-134 365 -41 1 c-174 3 -377 3 -408 1z"/>
<path d="M5793 1727 c-3 -5 -6 -287 -7 -628 l-1 -619 388 0 387 0 0 150 0 150
-189 0 -188 0 0 470 c0 258 -2 473 -6 476 -10 10 -378 10 -384 1z"/>
<path d="M9925 1732 c-2 -2 91 -283 206 -624 115 -341 209 -622 209 -625 0 -2
115 -2 256 -1 l257 3 208 620 c114 340 207 620 205 622 -3 3 -216 5 -348 4
l-66 -1 -17 -57 c-19 -62 -51 -169 -83 -273 -11 -36 -48 -162 -83 -280 -34
-118 -66 -218 -69 -223 -4 -4 -32 77 -62 180 -31 104 -86 287 -122 408 -36
120 -66 225 -66 232 0 9 -17 13 -52 14 -209 3 -370 4 -373 1z"/>
<path d="M1589 1486 c-2 -2 -21 -6 -42 -9 -65 -9 -179 -70 -235 -127 -49 -49
-106 -146 -117 -197 -3 -13 -8 -33 -11 -45 -12 -46 -12 -185 0 -250 44 -235
239 -388 493 -388 224 0 414 125 477 314 9 27 14 51 12 54 -3 3 -95 5 -203 6
l-198 1 -29 -27 c-16 -16 -37 -29 -47 -29 -11 -1 -25 -2 -31 -3 -46 -7 -98 49
-98 104 0 19 8 20 316 20 l317 0 -6 108 c-5 117 -28 192 -80 269 -61 92 -176
167 -295 192 -50 10 -214 16 -223 7z m170 -335 c17 -16 31 -38 31 -48 0 -17
-8 -19 -107 -17 -60 1 -111 2 -115 3 -14 2 6 43 34 66 44 37 115 35 157 -4z"/>
<path d="M7857 1479 c-59 -13 -118 -47 -169 -96 l-46 -46 1 69 1 69 -197 3
-197 2 0 -500 0 -500 196 2 197 3 1 291 1 290 25 37 c29 42 69 62 118 59 46
-4 85 -25 108 -59 17 -26 19 -53 22 -325 l3 -298 195 0 194 0 1 23 c5 157 -4
662 -13 697 -32 134 -120 238 -229 271 -45 14 -165 18 -212 8z"/>
<path d="M4190 1472 c0 -7 57 -139 110 -257 10 -22 66 -150 125 -285 59 -135
118 -268 131 -297 52 -111 71 -45 -140 -487 -32 -66 -58 -124 -59 -130 -1 -6
75 -10 207 -11 207 0 236 4 236 35 0 4 54 133 121 286 66 154 170 394 231 534
61 140 140 323 176 405 36 83 71 165 79 183 l13 32 -218 0 -218 0 -18 -52
c-10 -29 -22 -62 -26 -73 -5 -11 -35 -98 -67 -192 -32 -95 -60 -173 -63 -173
-3 0 -45 110 -95 245 l-90 245 -217 0 c-120 0 -218 -4 -218 -8z"/>
<path d="M6680 980 l0 -500 198 0 197 0 0 498 0 497 -197 3 -198 2 0 -500z"/>
<path d="M11350 1145 c1 -288 3 -343 19 -398 50 -183 169 -272 358 -270 69 0
91 5 145 31 35 16 82 49 106 72 l42 42 0 -71 0 -71 195 0 c107 0 195 3 195 8
1 10 1 888 1 945 l-1 47 -195 0 -195 0 0 -282 c0 -256 -2 -287 -19 -325 -23
-49 -62 -73 -120 -73 -54 0 -82 14 -111 57 -25 36 -25 37 -27 302 -1 146 -2
278 -2 294 l-1 27 -195 0 -195 0 0 -335z"/>
</g>
</svg>
