<?xml version="1.0" encoding="utf-8"?>
<!-- Generator: Adobe Illustrator 24.0.0, SVG Export Plug-In . SVG Version: 6.00 Build 0)  -->
<svg version="1.1" id="Layer_1" xmlns="http://www.w3.org/2000/svg" xmlns:xlink="http://www.w3.org/1999/xlink" x="0px" y="0px"
	 viewBox="0 0 302.94 144.98" style="enable-background:new 0 0 302.94 144.98;" xml:space="preserve">
<style type="text/css">
	.st0{fill:#556AAD;}
	.st1{clip-path:url(#SVGID_2_);fill:#F278A4;}
	.st2{clip-path:url(#SVGID_2_);fill:#556AAD;}
	.st3{clip-path:url(#SVGID_4_);fill:none;stroke:#F6D05A;stroke-width:2;}
	.st4{clip-path:url(#SVGID_4_);}
	.st5{fill:#556AAE;}
	.st6{font-family:'FengardoNeue';}
	.st7{font-size:11px;}
</style>
<path class="st0" d="M168.02,14.29h73.52v73.52h-73.52V14.29z M165.45,90.37h78.65V11.73h-78.65V90.37z"/>
<g>
	<defs>
		<rect id="SVGID_1_" x="115.59" y="11.73" width="179.97" height="117.62"/>
	</defs>
	<clipPath id="SVGID_2_">
		<use xlink:href="#SVGID_1_"  style="overflow:visible;"/>
	</clipPath>
	<path class="st1" d="M204.66,89.09L204.66,89.09c0.04,0,0.08,0,0.12,0c0.04,0,0.08,0,0.12,0v0c16.51-0.1,30.76-10.69,35.89-25.43
		h-72.02C173.89,78.4,188.14,88.99,204.66,89.09"/>
	<path class="st2" d="M204.89,90.37c-0.03,0-0.06,0-0.09,0h-0.04h-0.03c-0.03,0-0.06,0-0.08,0h-1.37l0-0.03
		c-7.8-0.31-15.24-2.86-21.6-7.43c-6.62-4.76-11.51-11.27-14.14-18.83l-0.59-1.7h75.63l-0.59,1.7c-2.63,7.56-7.52,14.08-14.14,18.83
		c-6.36,4.57-13.8,7.13-21.6,7.43l0,0.03L204.89,90.37z M170.62,64.94c5.54,13.66,19,22.78,34.05,22.87l0.13,0l0.09,0
		c15.05-0.09,28.51-9.21,34.05-22.87H170.62z"/>
	<path class="st1" d="M242.81,50.93c-0.22-12.59-6.68-22.89-12.11-27.6c-1.25-1.19-2.76-2.1-4.45-2.64h0l-0.01,0
		c-1.09-0.35-2.26-0.53-3.46-0.53c-0.8,0-1.58,0.08-2.33,0.24c-7.95,1.44-11.42,10.8-12.65,15.35h-6.08
		c-1.23-4.55-4.7-13.9-12.65-15.35c-0.75-0.15-1.53-0.24-2.33-0.24c-1.21,0-2.37,0.19-3.46,0.53c0,0,0,0-0.01,0
		c-1.68,0.53-3.2,1.45-4.45,2.64c-5.42,4.71-11.88,15.01-12.11,27.6c-0.04,2.17,0.12,4.29,0.44,6.36h75.2
		C242.7,55.22,242.85,53.1,242.81,50.93"/>
	<path class="st2" d="M243.47,58.58h-77.4l-0.17-1.08c-0.34-2.17-0.49-4.39-0.45-6.58c0.1-5.88,1.57-11.86,4.23-17.3
		c2.21-4.51,5.15-8.5,8.29-11.23c0.18-0.17,0.39-0.36,0.61-0.57c1.22-1.12,2.69-1.92,4.29-2.34l0.07-0.02
		c1.23-0.39,2.52-0.58,3.82-0.58c0.87,0,1.73,0.09,2.57,0.26c3.81,0.7,7.07,3.08,9.67,7.07c1.83,2.81,3,5.9,3.7,8.26h4.15
		c0.7-2.36,1.87-5.45,3.7-8.26c2.61-3.99,5.86-6.37,9.67-7.07c0.84-0.17,1.71-0.26,2.57-0.26c1.3,0,2.58,0.19,3.81,0.58l0.01,0
		c1.75,0.44,3.35,1.34,4.64,2.61c0.11,0.11,0.22,0.22,0.32,0.31c3.14,2.73,6.08,6.72,8.29,11.23c2.67,5.44,4.13,11.42,4.23,17.3
		c0.04,2.19-0.11,4.41-0.45,6.58L243.47,58.58z M168.29,56.01h72.97c0.21-1.68,0.3-3.37,0.27-5.05
		c-0.2-11.59-6.01-21.74-11.66-26.66l-0.04-0.04c-1.12-1.07-2.48-1.88-3.95-2.34l-0.03-0.01c-0.98-0.31-2.01-0.46-3.05-0.46
		c-0.7,0-1.39,0.07-2.07,0.21l-0.03,0.01c-7.34,1.33-10.59,10.53-11.64,14.42l-0.26,0.95h-8.05l-0.26-0.95
		c-1.05-3.89-4.3-13.09-11.64-14.42l-0.03-0.01c-0.67-0.14-1.37-0.21-2.07-0.21c-1.04,0-2.07,0.16-3.05,0.47l-0.03,0.01
		c-1.47,0.47-2.83,1.28-3.95,2.34l-0.04,0.04c-5.66,4.92-11.46,15.07-11.67,26.66C167.99,52.64,168.08,54.33,168.29,56.01"/>
	<path class="st2" d="M241.7,64.94h-73.85l-0.3-0.86c-0.74-2.13-1.3-4.35-1.65-6.58l-0.23-1.48h78.2l-0.23,1.48
		c-0.35,2.23-0.9,4.45-1.65,6.58L241.7,64.94z M169.69,62.37h70.17c0.4-1.24,0.73-2.51,0.98-3.79h-72.14
		C168.96,59.86,169.29,61.13,169.69,62.37"/>
	<path class="st2" d="M204.66,90.6c-10.53,0-20.44-4.1-27.89-11.55c-7.45-7.45-11.55-17.35-11.55-27.89
		c0-10.53,4.1-20.44,11.55-27.89c7.45-7.45,17.35-11.55,27.89-11.55c10.53,0,20.44,4.1,27.89,11.55s11.55,17.35,11.55,27.89
		c0,10.53-4.1,20.44-11.55,27.89S215.2,90.6,204.66,90.6 M204.66,14.31c-20.32,0-36.86,16.53-36.86,36.86
		c0,20.32,16.53,36.86,36.86,36.86s36.86-16.53,36.86-36.86C241.52,30.84,224.98,14.31,204.66,14.31"/>
	<rect x="203" y="63.73" class="st2" width="2.57" height="25.36"/>
	<rect x="168.76" y="62.45" class="st2" width="71.8" height="2.57"/>
	<rect x="167.17" y="56.11" class="st2" width="74.97" height="2.57"/>
	<rect x="115.59" y="99.91" class="st1" width="6.13" height="21.77"/>
	<path class="st1" d="M123.41,108.43c3.31-0.95,3.4-3.13,3.4-3.13c-1.5-0.06-2.73-1.26-2.73-3.07c0-1.9,1.56-2.94,3.04-2.94
		c2.12,0,3.34,1.66,3.34,3.83c0,4.88-3.89,6.62-6.01,6.87L123.41,108.43z"/>
	<path class="st1" d="M132.76,121.68v-9.75c0-1.17-0.37-1.59-1.53-1.59v-3.68c0,0,1.01-0.46,2.24-0.46c1.32,0,2.88,0.43,3.86,1.9
		h0.12c0.86-1.44,2.21-2.05,3.83-2.05c1.65,0,3.07,0.71,3.86,2.08h0.12c0.89-1.35,2.18-2.08,3.89-2.08c2.82,0,4.45,1.87,4.45,5.37
		v10.27h-5.52v-10.03c0-0.74-0.28-1.17-0.95-1.17c-0.71,0-1.16,0.71-1.2,1.29v9.9h-5.52v-9.93c0-0.86-0.31-1.26-0.89-1.26
		c-0.7,0-1.16,0.55-1.26,1.1v10.09H132.76z"/>
	<path class="st1" d="M158.48,115.92c1.75,0,3.07,1.26,3.07,3.16c0,1.81-1.32,3.07-3.07,3.07c-1.72,0-3.04-1.26-3.04-3.07
		C155.45,117.17,156.76,115.92,158.48,115.92"/>
	<path class="st1" d="M164.15,111.93c0-1.17-0.46-1.6-1.53-1.6v-3.83c1.81-0.46,4.69-0.55,6.1,1.69c0,0,1.35-2.15,4.11-2.15
		c2.7,0,4.6,1.84,4.72,5.27c0.06,1.63,0.06,3.43,0,5.21c-0.12,3.86-2.42,5.61-5.49,5.61c-1.47,0-2.39-0.49-2.39-0.49v7.7h-5.52
		V111.93z M169.67,116.44c0,0.77,0.49,1.26,1.16,1.26c0.77,0,1.2-0.55,1.2-1.23v-4.6c0-0.92-0.37-1.38-1.07-1.38
		c-0.74,0-1.29,0.67-1.29,1.44V116.44z"/>
	<path class="st1" d="M186.11,117.69c0.61,0,1.1-0.43,1.13-1.23l5.06,0.15c-0.12,3.4-2.76,5.52-6.19,5.52
		c-3.4,0-6.41-1.81-6.59-5.73c-0.06-1.5-0.06-2.85,0-4.45c0.12-3.56,3.04-5.92,6.74-5.92c3.37,0,6.22,1.78,6.22,5.43
		c0,2.15-1.04,2.79-3.4,3.28c-1.87,0.4-4.08,0.7-4.08,0.7v0.95C185,117.2,185.43,117.69,186.11,117.69 M185,113.03
		c0,0,0.52-0.03,1.04-0.15c0.71-0.15,0.92-0.34,0.92-1.26c0-0.77-0.37-1.13-0.95-1.13c-0.58,0-1.01,0.37-1.01,1.07V113.03z"/>
	<path class="st1" d="M195.09,111.93c0-1.17-0.37-1.59-1.53-1.59v-3.68c0,0,1.01-0.46,2.24-0.46c1.69,0,3.4,0.61,3.96,3.56h0.09
		c0-1.93,1.23-3.71,3.1-3.71c1.13,0,1.81,0.43,2.12,0.77l-0.31,4.14c-0.37-0.03-0.71-0.03-1.04-0.03c-1.75,0-3.04,0.4-3.1,2.33v8.43
		h-5.52V111.93z"/>
	<path class="st1" d="M206.89,104.45c0-3.65,2.67-5.76,5.92-5.76c1.29,0,2.42,0.21,3.49,0.83l-0.71,3.92c0,0-0.77-0.15-1.56-0.15
		c-0.83,0-1.63,0.43-1.63,1.47v1.75h2.94v3.83h-2.94v11.34h-5.52v-11.34h-1.69v-3.83h1.69V104.45z"/>
	<path class="st1" d="M222.96,117.69c0.61,0,1.1-0.43,1.13-1.23l5.06,0.15c-0.12,3.4-2.76,5.52-6.19,5.52
		c-3.4,0-6.41-1.81-6.59-5.73c-0.06-1.5-0.06-2.85,0-4.45c0.12-3.56,3.04-5.92,6.74-5.92c3.37,0,6.22,1.78,6.22,5.43
		c0,2.15-1.04,2.79-3.4,3.28c-1.87,0.4-4.08,0.7-4.08,0.7v0.95C221.85,117.2,222.28,117.69,222.96,117.69 M221.85,113.03
		c0,0,0.52-0.03,1.04-0.15c0.7-0.15,0.92-0.34,0.92-1.26c0-0.77-0.37-1.13-0.95-1.13c-0.58,0-1.01,0.37-1.01,1.07V113.03z"/>
	<path class="st1" d="M238.68,112.02c0.12-0.89-0.31-1.53-0.98-1.53c-0.61,0-1.07,0.4-1.1,1.23c-0.06,1.53-0.06,3.04,0,4.69
		c0.03,0.83,0.58,1.29,1.13,1.29c0.74,0,1.1-0.58,1.04-1.38l5.06,0.15c-0.06,3.16-2.3,5.67-6.1,5.67c-3.8,0-6.53-2.05-6.65-5.73
		c-0.06-1.63-0.06-3.59,0-4.91c0.15-3.43,3.13-5.46,6.62-5.46c3.99,0,6.32,2.21,6.04,5.83L238.68,112.02z"/>
	<path class="st1" d="M254.26,117.91c0.34,0,1.07,0,1.44-0.06l0.15,3.83c-0.8,0.28-2.21,0.46-3.34,0.46c-3,0-6.1-1.29-6.1-5.64
		v-6.16h-2.12v-3.83h2.12v-3.34l5.52-0.92v4.26h3.65v3.83h-3.65v5.27C251.93,117.3,252.76,117.91,254.26,117.91"/>
	<path class="st1" d="M260.05,98.68c1.75,0,3.16,1.23,3.16,3.03c0,1.72-1.41,2.94-3.16,2.94c-1.72,0-3.13-1.23-3.13-2.94
		C256.93,99.91,258.34,98.68,260.05,98.68 M262.75,116.5c0,1.2,0.74,1.35,1.78,1.35v3.83c-2.73,0.58-7.3,0.86-7.3-4.2V107.3
		l5.52-0.95V116.5z"/>
	<path class="st1" d="M272.62,122.14c-3.68,0-6.5-2.12-6.65-5.52c-0.06-1.63-0.06-3.28,0-5.03c0.12-3.37,3.01-5.55,6.65-5.55
		c3.65,0,6.47,2.18,6.62,5.55c0.06,1.47,0.06,3.34,0,5.06C279.12,120.02,276.3,122.14,272.62,122.14 M272.62,110.49
		c-0.61,0-1.1,0.55-1.14,1.26c-0.06,1.38-0.06,3.22,0,4.63c0.03,0.8,0.52,1.32,1.14,1.32c0.61,0,1.07-0.52,1.1-1.32
		c0.06-1.32,0.06-3.13,0-4.63C273.7,111.04,273.24,110.49,272.62,110.49"/>
	<path class="st1" d="M287.58,111.81v9.87h-5.52v-9.75c0-1.17-0.37-1.6-1.53-1.6v-3.68c0,0,1.01-0.46,2.24-0.46
		c1.35,0,2.94,0.43,3.93,1.99h0.06c0.86-1.38,2.27-2.15,4.11-2.15c2.61,0,4.69,1.56,4.69,5.49v10.15h-5.52v-10
		c0-0.74-0.4-1.19-1.07-1.19C287.95,110.49,287.62,111.41,287.58,111.81"/>
</g>
<g>
	<defs>
		<rect id="SVGID_3_" x="6.91" y="10.72" width="288.64" height="121.45"/>
	</defs>
	<clipPath id="SVGID_4_">
		<use xlink:href="#SVGID_3_"  style="overflow:visible;"/>
	</clipPath>
	<polyline class="st3" points="89.41,11.73 74.04,11.73 74.04,88.92 89.41,88.92 	"/>
	<polyline class="st3" points="89.41,102.31 74.04,102.31 74.04,128.53 89.41,128.53 	"/>
	<g class="st4">
		<text transform="matrix(1 0 0 1 6.9138 19.6044)" class="st5 st6 st7">ICON</text>
	</g>
	<g class="st4">
		<text transform="matrix(1 0 0 1 6.9138 109.2323)"><tspan x="0" y="0" class="st5 st6 st7">W</tspan><tspan x="9.36" y="0" class="st5 st6 st7">ORDMARK</tspan></text>
	</g>
</g>
</svg>
