<?xml version="1.0" encoding="utf-8"?>
<!-- Generator: Adobe Illustrator 24.0.0, SVG Export Plug-In . SVG Version: 6.00 Build 0)  -->
<svg version="1.1" id="Layer_1" xmlns="http://www.w3.org/2000/svg" xmlns:xlink="http://www.w3.org/1999/xlink" x="0px" y="0px"
	 viewBox="0 0 143.71 107.05" style="enable-background:new 0 0 143.71 107.05;" xml:space="preserve">
<style type="text/css">
	.st0{fill:none;}
</style>
<g id="smile">
	<g>
		<path class="st0" d="M88.06,35.53c-5.48,0-9.9-1.93-11.87-5.7c-1.8-3.44-1.22-7.79,1.64-12.25c2.69-4.2,7.13-8.06,12.5-10.86
			c11.55-6.03,23.43-5.32,27.04,1.61c1.8,3.44,1.22,7.79-1.64,12.25c-2.69,4.2-7.13,8.06-12.5,10.86
			C97.97,34.18,92.65,35.53,88.06,35.53z M105.54,5.67c-4.13,0-9.07,1.23-13.82,3.71l0,0c-4.92,2.57-8.96,6.06-11.37,9.82
			c-2.25,3.51-2.78,6.79-1.5,9.24c2.74,5.26,13.28,5.41,23,0.34c4.92-2.57,8.96-6.06,11.37-9.82c2.25-3.51,2.78-6.79,1.5-9.24
			C113.31,7.03,109.87,5.67,105.54,5.67z"/>
	</g>
	<g>
		<g>
			<path class="st0" d="M88.15,28.34c-0.2,0-0.41-0.06-0.59-0.19c-0.45-0.33-0.54-0.95-0.22-1.4l3.06-4.19l-4.51,0.7
				c-0.54,0.08-1.06-0.29-1.14-0.83c-0.08-0.55,0.29-1.06,0.83-1.14l6.89-1.07c0.4-0.06,0.8,0.12,1.01,0.47
				c0.21,0.35,0.19,0.78-0.05,1.11l-4.48,6.14C88.76,28.2,88.46,28.34,88.15,28.34z"/>
		</g>
		<g>
			<path class="st0" d="M100.54,17.96c-0.3,0-0.58-0.13-0.78-0.37c-0.26-0.31-0.3-0.75-0.1-1.11l3.32-6.14
				c0.26-0.48,0.87-0.67,1.36-0.4c0.49,0.26,0.67,0.87,0.4,1.35l-2.17,4.01l4.97-1.49c0.52-0.16,1.09,0.14,1.24,0.67
				c0.16,0.53-0.14,1.09-0.67,1.24l-7.29,2.18C100.73,17.95,100.64,17.96,100.54,17.96z"/>
		</g>
	</g>
	<g>
		<path class="st0" d="M97.34,24.88c-0.43,0-0.86-0.06-1.29-0.17c-0.53-0.15-0.85-0.7-0.7-1.23c0.15-0.53,0.7-0.85,1.23-0.7
			c1.53,0.42,3.14-0.49,3.56-2.04l0.02-0.09c0.13-0.54,0.67-0.86,1.21-0.73c0.54,0.13,0.87,0.67,0.73,1.21l-0.03,0.12
			C101.48,23.44,99.5,24.88,97.34,24.88z"/>
	</g>
</g>
<g id="wordmark">
	<path class="st0" d="M70.64,75.59H48.93c0,0-3.65,20.7-25.75,22.37l15.38-61.69L17.9,45.99l-0.02,0.06l-8.36,3.96h3.02
		c1.68,0,3.16,1.09,3.66,2.7l0,0L3.52,102.9h18.1h0.33h27.5c1.54,0,3.04-0.49,4.28-1.4C58.71,97.84,71.17,87.46,70.64,75.59z"/>
	<path class="st0" d="M92.89,45.99l-0.02,0.06l-8.36,3.96h3.02c1.68,0,3.16,1.09,3.66,2.7l0,0L78.51,102.9h18.43l16.61-66.63
		L92.89,45.99z"/>
	<path class="st0" d="M140.18,72.4c-0.06,0.01-6.29,0.78-12.63,4.9c-5.85,3.81-13.01,11.34-13.84,25.59l-0.01,0.12l0.12-0.02
		c0.07-0.01,6.64-0.97,13.15-5.19c6.01-3.9,13.21-11.45,13.32-25.31l0-0.12L140.18,72.4z"/>
</g>
</svg>
