<svg width="115" height="133" viewBox="0 0 115 133" fill="none" xmlns="http://www.w3.org/2000/svg">
<g clip-path="url(#clip0)">
<path d="M66.5366 0.719116C75.386 0.719116 83.8326 2.47366 91.5453 5.65197C64.2199 12.4113 43.9596 37.0611 43.9596 66.4569C43.9596 95.9102 64.2918 120.603 91.6892 127.305C83.9333 130.512 75.4436 132.295 66.5222 132.295C30.189 132.295 0.719482 102.842 0.719482 66.5C0.719482 30.1724 30.189 0.719116 66.5366 0.719116Z" fill="white" stroke="white" stroke-width="0.9984" stroke-miterlimit="10"/>
<path d="M108.899 86.0301C108.755 84.3474 107.92 82.823 106.683 81.8594C105.46 80.8959 104.007 80.3925 102.51 80.3494C99.5458 80.1912 96.4089 82.5929 96.1211 86.0301C95.9629 87.6983 96.4809 89.496 97.6752 90.8623C98.8551 92.2285 100.654 93.0626 102.51 93.1201C104.381 93.1633 106.237 92.3004 107.374 90.891C108.525 89.4816 109.057 87.6983 108.899 86.0301ZM111.806 86.0301C111.676 88.4606 110.511 90.7616 108.741 92.2429C106.985 93.7529 104.769 94.5727 102.524 94.6014C100.28 94.659 98.0061 93.8105 96.2794 92.2716C94.5527 90.7472 93.3872 88.4749 93.2433 86.0301C93.085 83.614 93.9196 81.0397 95.6319 79.1413C97.3298 77.243 99.9055 76.0781 102.524 76.0349C105.143 75.9774 107.762 77.1711 109.446 79.1126C111.115 81.0541 111.949 83.5996 111.806 86.0301Z" fill="black"/>
<path d="M78.2207 102.842C78.1488 102.152 78.0912 101.476 77.861 100.814C77.6308 100.153 77.2854 99.5344 76.8106 98.9879C75.8609 97.9093 74.4795 97.1758 72.9542 97.0751C71.4289 96.9457 69.8605 97.5066 68.6662 98.5708C67.4718 99.6351 66.7668 101.231 66.7524 102.857C66.7236 104.482 67.4143 106.107 68.5942 107.2C69.7598 108.336 71.4001 108.839 72.9398 108.753C76.1199 108.58 78.4941 105.618 78.2207 102.842ZM81.0554 102.842C80.9691 104.971 79.9906 106.998 78.4797 108.365C76.9545 109.745 74.9112 110.421 72.9542 110.306C70.9829 110.234 69.1554 109.299 67.846 107.948C66.5365 106.581 65.7883 104.726 65.7739 102.842C65.7595 100.958 66.479 99.0742 67.7884 97.6648C69.0691 96.241 70.9829 95.3494 72.9686 95.2343C74.9543 95.1193 77.0408 95.824 78.5661 97.2333C80.0482 98.6427 81.1418 100.699 81.0554 102.842Z" fill="black"/>
<path d="M53.2695 84.8797C53.1832 83.4271 52.4781 82.104 51.4708 81.1836C50.478 80.2344 49.1685 79.616 47.7728 79.5585C46.377 79.4866 44.9237 79.9612 43.8013 80.9247C42.6789 81.8883 41.9451 83.3408 41.8587 84.894C41.7436 86.4472 42.3336 88.058 43.4416 89.2085C44.5495 90.3734 46.1468 91.0637 47.7584 91.0062C49.37 90.9486 50.8953 90.1864 51.8737 89.0071C52.8666 87.8279 53.3702 86.3322 53.2695 84.8797ZM55.6438 84.8797C55.543 86.9362 54.6077 88.9209 53.1112 90.2152C51.6147 91.5239 49.6722 92.1998 47.7728 92.1279C45.8734 92.0704 44.0027 91.3369 42.6358 89.9995C41.2544 88.6908 40.4054 86.8212 40.3047 84.8653C40.2039 82.9094 40.909 80.8816 42.276 79.3715C43.6286 77.8471 45.6575 76.8835 47.7728 76.826C49.8736 76.7541 52.0464 77.5739 53.5285 79.1127C55.0106 80.6659 55.7445 82.8231 55.6438 84.8797Z" fill="black"/>
<path d="M74.8824 62.1568C76.742 62.1568 78.2495 60.6501 78.2495 58.7915C78.2495 56.933 76.742 55.4263 74.8824 55.4263C73.0228 55.4263 71.5153 56.933 71.5153 58.7915C71.5153 60.6501 73.0228 62.1568 74.8824 62.1568Z" stroke="black" stroke-width="0.4992" stroke-miterlimit="10"/>
<path d="M90.7827 39.5492C90.7251 38.9307 90.4805 38.3699 90.092 37.8953C89.6891 37.4207 89.0847 37.1187 88.4372 37.0612C87.1134 36.8886 85.66 38.0391 85.6456 39.5492C85.6169 40.2826 85.9047 41.0304 86.4515 41.5338C86.9839 42.0515 87.7321 42.3104 88.4372 42.2529C89.9049 42.1666 90.9266 40.786 90.7827 39.5492ZM92.8116 39.5492C92.754 40.6853 92.236 41.7927 91.4158 42.5117C90.5956 43.2452 89.4876 43.6047 88.4516 43.5472C86.3219 43.4609 84.5377 41.6345 84.5233 39.5348C84.4945 38.5137 84.8686 37.4495 85.5881 36.6729C86.3076 35.8963 87.3436 35.3641 88.4516 35.321C89.5596 35.2491 90.7107 35.6805 91.5453 36.4571C92.3943 37.2194 92.8691 38.413 92.8116 39.5492Z" fill="black"/>
<path d="M114.324 30.7621C114.352 29.7985 113.518 28.8925 112.511 28.8781C111.503 28.8062 110.525 29.7122 110.539 30.7621C110.525 31.8119 111.489 32.7324 112.511 32.6461C113.518 32.6173 114.352 31.7256 114.324 30.7621ZM115 30.7621C115 31.4093 114.712 32.0564 114.252 32.5166C113.791 32.9625 113.129 33.2069 112.496 33.1926C111.201 33.1782 110.108 32.0133 110.151 30.7765C110.108 29.5253 111.201 28.3748 112.496 28.3604C113.129 28.346 113.777 28.5761 114.252 29.0363C114.727 29.4534 115 30.1005 115 30.7621Z" fill="black"/>
<path d="M111.705 24.3192C111.575 23.6576 111.144 22.9673 110.338 22.8666C109.575 22.7084 108.64 23.37 108.582 24.3192C108.482 25.254 109.403 26.1888 110.338 26.0306C111.288 25.9299 111.834 25.0095 111.705 24.3192ZM113.302 24.3192C113.244 25.0958 112.885 25.8148 112.324 26.2894C111.762 26.764 111.029 26.9797 110.352 26.9222C108.985 26.8216 107.834 25.6854 107.791 24.3192C107.676 22.9673 108.813 21.5579 110.352 21.4573C111.1 21.3997 111.892 21.673 112.467 22.2051C113.057 22.7228 113.36 23.557 113.302 24.3192Z" fill="black"/>
<path d="M106.525 18.6816C106.496 17.6892 105.633 16.8983 104.668 16.8551C103.69 16.7976 102.755 17.6461 102.74 18.6816C102.668 19.717 103.604 20.7093 104.668 20.6662C105.733 20.6518 106.611 19.6595 106.525 18.6816ZM107.129 18.6816C107.115 20.0047 105.906 21.0689 104.668 21.0114C103.431 21.0257 102.309 19.9615 102.294 18.6816C102.208 17.416 103.345 16.1936 104.668 16.1936C106.021 16.0929 107.215 17.3728 107.129 18.6816Z" fill="black"/>
<path d="M96.3801 16.5244C96.3082 16.0786 96.0635 15.6903 95.7182 15.4889C95.3728 15.2732 94.9987 15.2444 94.6822 15.302C94.049 15.4314 93.5454 15.8772 93.4447 16.5388C93.2864 17.1859 93.79 18.0632 94.6822 18.1926C95.1138 18.2646 95.6031 18.1207 95.9484 17.8043C96.3226 17.488 96.4377 16.9558 96.3801 16.5244ZM97.301 16.5244C97.1284 17.8763 96.1067 19.0412 94.6822 19.185C93.9915 19.2569 93.2288 19.0412 92.6533 18.5666C92.0777 18.092 91.6748 17.3441 91.6172 16.5388C91.4589 14.8993 93.013 13.2742 94.6822 13.4611C96.3513 13.5618 97.4737 15.1582 97.301 16.5244Z" fill="black"/>
<path d="M71.9901 50.7092C71.8462 49.4292 70.7526 48.5519 69.5871 48.4369C68.4072 48.3074 67.0402 49.271 66.9395 50.7092C66.738 52.1185 68.0618 53.6142 69.5871 53.5135C71.1268 53.456 72.1628 51.9603 71.9901 50.7092ZM73.9039 50.7092C73.8464 51.8309 73.314 52.9239 72.4938 53.6142C71.6736 54.3189 70.6088 54.6641 69.5871 54.6209C68.5655 54.5922 67.5582 54.1895 66.81 53.4848C66.0617 52.7801 65.5869 51.7734 65.5149 50.7092C65.443 49.6449 65.8171 48.5232 66.5653 47.689C67.2992 46.8405 68.4216 46.294 69.5871 46.2653C70.7383 46.2221 71.9614 46.6536 72.7672 47.5308C73.5874 48.3794 73.9615 49.5874 73.9039 50.7092Z" fill="black"/>
<path d="M25.7858 55.4263C25.7426 54.736 25.5268 54.0457 25.0375 53.5136C24.5627 52.9815 23.8576 52.6507 23.1237 52.6076C21.6272 52.4637 20.102 53.8156 20.1451 55.4263C20.0588 57.0227 21.5841 58.4608 23.1237 58.3314C24.6922 58.2882 25.9009 56.8357 25.7858 55.4263ZM27.1815 55.4263C27.1528 56.4906 26.6779 57.5116 25.9153 58.2163C25.1526 58.921 24.1166 59.2806 23.1237 59.2374C22.1165 59.2087 21.1668 58.7628 20.4761 58.0581C19.7998 57.3534 19.3969 56.3899 19.3825 55.4119C19.3681 54.434 19.7566 53.4561 20.4329 52.737C21.1092 52.0035 22.0877 51.5577 23.1093 51.5146C25.1958 51.3851 27.2823 53.2403 27.1815 55.4263Z" fill="black"/>
<path d="M25.7139 37.4782C25.6419 36.0688 24.3325 35.1196 23.1238 35.134C21.8863 35.0765 20.6344 36.0976 20.5337 37.4782C20.4761 38.1541 20.7063 38.8732 21.1812 39.4197C21.656 39.9662 22.3755 40.2826 23.1238 40.3113C23.872 40.3401 24.5915 39.9806 25.0663 39.4341C25.5412 38.8588 25.757 38.1541 25.7139 37.4782ZM27.2679 37.4782C27.2247 38.5568 26.7211 39.5923 25.9441 40.2826C25.1814 40.9873 24.1598 41.3612 23.1381 41.3756C21.0805 41.4475 19.0803 39.6929 19.0084 37.4782C18.9508 36.3996 19.3393 35.2634 20.1164 34.4437C20.879 33.6096 22.0014 33.1206 23.1525 33.1062C24.3037 33.0775 25.4405 33.6096 26.1887 34.4293C26.9226 35.2778 27.3111 36.3996 27.2679 37.4782Z" fill="black"/>
<path d="M17.1953 44.1944C17.1234 42.8857 16.0586 41.6632 14.6628 41.6201C13.2958 41.4907 11.9 42.6987 11.8856 44.1944C11.8712 44.9278 12.159 45.6613 12.6771 46.1934C13.2095 46.6968 13.9433 47.0132 14.6772 46.97C16.1593 46.9269 17.3104 45.5175 17.1953 44.1944ZM18.8501 44.1944C18.8213 45.2874 18.3321 46.3516 17.5407 47.0707C16.7492 47.7898 15.6988 48.1781 14.6628 48.1349C12.5619 48.1205 10.7201 46.2797 10.7201 44.18C10.605 42.0947 12.4324 40.0669 14.6628 40.0381C15.742 40.0094 16.85 40.4264 17.6558 41.1887C18.4616 41.9653 18.8933 43.1014 18.8501 44.1944Z" fill="black"/>
</g>
<defs>
<clipPath id="clip0">
<rect width="115" height="133" fill="white"/>
</clipPath>
</defs>
</svg>
