<svg width="137" height="137" viewBox="0 0 137 137" fill="none" xmlns="http://www.w3.org/2000/svg">
<path d="M68.5 136.261C105.923 136.261 136.261 105.923 136.261 68.5C136.261 31.0769 105.923 0.739441 68.5 0.739441C31.0769 0.739441 0.739441 31.0769 0.739441 68.5C0.739441 105.923 31.0769 136.261 68.5 136.261Z" fill="white" stroke="white" stroke-miterlimit="10"/>
<path d="M20.9848 88.6123C20.8221 86.113 21.6947 83.4955 23.4249 81.499C25.1404 79.5026 27.8466 78.2752 30.5381 78.3343C33.2296 78.3787 35.8768 79.5618 37.6218 81.5286C39.3964 83.4807 40.2541 86.1278 40.0915 88.6123C39.9436 91.1263 38.7457 93.4629 36.9563 95.0305C35.1965 96.6276 32.8451 97.5001 30.5381 97.441C28.2311 97.3966 25.9389 96.5537 24.1347 95.0157C22.3158 93.4777 21.1179 91.1115 20.9848 88.6123ZM23.9721 88.6123C23.8242 90.3425 24.3566 92.1615 25.5396 93.6256C26.7227 95.0748 28.6304 95.9769 30.5529 95.9178C32.4754 95.8734 34.324 95.0009 35.5366 93.596C36.7493 92.1911 37.2964 90.3425 37.1338 88.6123C36.838 85.0778 33.6141 82.6082 30.5529 82.7709C29.0149 82.8152 27.5213 83.3328 26.2643 84.3236C24.9777 85.2997 24.1052 86.882 23.9721 88.6123Z" fill="black"/>
<path d="M52.632 105.93C52.5433 103.726 53.6672 101.597 55.22 100.162C56.7876 98.698 58.9319 97.9734 60.9875 98.1065C63.0283 98.2248 64.9952 99.1269 66.3113 100.606C67.6423 102.055 68.3965 103.992 68.3817 105.93C68.3669 107.867 67.5979 109.775 66.2522 111.194C64.9064 112.599 63.0135 113.546 60.9875 113.62C58.9763 113.723 56.8763 113.028 55.294 111.608C53.7264 110.203 52.7356 108.103 52.632 105.93ZM55.5602 105.93C55.2792 108.799 57.7193 111.83 60.9875 112.008C62.5699 112.096 64.2558 111.564 65.4684 110.396C66.6811 109.272 67.3909 107.601 67.3613 105.915C67.3613 104.244 66.6219 102.602 65.3945 101.508C64.167 100.413 62.5551 99.8367 60.9875 99.9698C59.4199 100.073 57.9855 100.842 57.0094 101.937C56.5214 102.499 56.1517 103.135 55.9299 103.815C55.6933 104.51 55.6341 105.22 55.5602 105.93Z" fill="black"/>
<path d="M78.7928 87.4292C78.6893 85.3144 79.4583 83.0814 80.9815 81.499C82.5047 79.9167 84.7377 79.0737 86.9116 79.1477C89.0855 79.2068 91.1707 80.2124 92.5608 81.78C93.9657 83.3328 94.7051 85.418 94.6016 87.4292C94.4981 89.4404 93.6108 91.3629 92.2059 92.7234C90.801 94.084 88.8637 94.853 86.9116 94.9121C84.9596 94.9861 82.9483 94.291 81.4103 92.9305C79.8428 91.5995 78.8815 89.5439 78.7928 87.4292ZM81.2477 87.4292C81.1441 88.9228 81.6617 90.4608 82.6673 91.6587C83.673 92.8713 85.2553 93.6551 86.8968 93.7143C88.5531 93.7882 90.2094 93.0636 91.3482 91.8657C92.5016 90.6826 93.0932 89.0116 92.9749 87.4144C92.8861 85.8173 92.1319 84.3236 90.9784 83.3328C89.8249 82.342 88.3313 81.854 86.8968 81.9279C85.4476 81.9871 84.1018 82.623 83.0814 83.599C82.0462 84.575 81.3364 85.9356 81.2477 87.4292Z" fill="black"/>
<path d="M67.4944 80.2716C67.4353 78.8963 67.9528 77.4766 68.9141 76.4266C69.8606 75.3618 71.295 74.6964 72.7591 74.6668C74.2231 74.652 75.7168 75.2287 76.7224 76.3083C77.7428 77.3583 78.3343 78.8223 78.2752 80.2716C78.2308 81.7209 77.5801 83.111 76.5449 84.0574C75.5097 85.0039 74.1196 85.5215 72.7591 85.4771C70.0084 85.418 67.5831 83.0814 67.4944 80.2716ZM68.2486 80.2716C68.1895 81.4547 68.6331 82.6821 69.4761 83.5546C70.3338 84.4271 71.5612 84.8856 72.7591 84.8412C73.9569 84.8116 75.1104 84.2645 75.8942 83.4067C76.678 82.549 77.0921 81.3955 77.0329 80.2716C76.9738 79.1477 76.5153 78.0829 75.7168 77.3139C74.9182 76.5597 73.8682 76.1013 72.7591 76.0865C71.6647 76.0421 70.5408 76.4414 69.6831 77.1956C68.8254 77.9646 68.293 79.0885 68.2486 80.2716Z" fill="black"/>
<path d="M58.991 64.0191C60.9022 64.0191 62.4515 62.4698 62.4515 60.5586C62.4515 58.6475 60.9022 57.0981 58.991 57.0981C57.0799 57.0981 55.5305 58.6475 55.5305 60.5586C55.5305 62.4698 57.0799 64.0191 58.991 64.0191Z" stroke="black" stroke-width="0.5" stroke-miterlimit="10"/>
<path d="M40.5351 40.7421C40.4759 39.5591 40.964 38.3316 41.8513 37.5626C42.709 36.764 43.8921 36.3204 45.0308 36.3943C46.1695 36.4535 47.249 36.9859 47.9885 37.7992C48.7279 38.6126 49.1124 39.6922 49.0828 40.7569C49.068 42.916 47.2195 44.7942 45.0308 44.8829C43.9512 44.942 42.8273 44.5723 41.9696 43.8181C41.1266 43.0491 40.5942 41.9104 40.5351 40.7421ZM42.6203 40.7421C42.4724 42.0139 43.5224 43.4336 45.0308 43.5371C45.7702 43.5963 46.5392 43.3301 47.0864 42.7977C47.6335 42.2653 47.9293 41.4963 47.9145 40.7421C47.8997 39.1893 46.4061 37.9915 45.0456 38.1689C44.3653 38.2281 43.759 38.5387 43.3301 39.0267C42.9308 39.5295 42.6794 40.1062 42.6203 40.7421Z" fill="black"/>
<path d="M17.687 31.6769C17.687 30.9966 17.9827 30.3459 18.456 29.8727C18.9292 29.4142 19.6095 29.1628 20.2602 29.1776C21.5911 29.1924 22.715 30.3903 22.6707 31.6769C22.715 32.9635 21.5911 34.1465 20.2602 34.1761C19.6095 34.1909 18.944 33.9543 18.456 33.4811C17.9827 33.0226 17.687 32.3571 17.687 31.6769ZM18.3968 31.6769C18.3672 32.6677 19.225 33.5994 20.2602 33.6289C21.3101 33.7029 22.301 32.7712 22.2862 31.6769C22.301 30.5825 21.3101 29.6509 20.2602 29.7248C19.225 29.7544 18.3525 30.686 18.3968 31.6769Z" fill="black"/>
<path d="M19.4468 25.0516C19.3876 24.2678 19.6982 23.4101 20.3045 22.8777C20.8961 22.3305 21.7094 22.0496 22.4784 22.1087C24.0608 22.1974 25.2291 23.6615 25.1108 25.0516C25.0664 26.4565 23.8833 27.6396 22.4784 27.7283C21.7834 27.7875 21.0292 27.5509 20.4524 27.0776C19.8757 26.5896 19.4912 25.8354 19.4468 25.0516ZM21.0735 25.0516C20.9404 25.7762 21.5172 26.7079 22.4784 26.8114C23.4397 26.9741 24.3861 26.0277 24.2826 25.0516C24.2235 24.0756 23.2622 23.3953 22.4784 23.558C21.6503 23.6467 21.2066 24.3566 21.0735 25.0516Z" fill="black"/>
<path d="M25.791 19.2398C25.7023 17.894 26.9297 16.5779 28.3199 16.6814C29.6952 16.6814 30.8487 17.9384 30.7747 19.2398C30.7599 20.556 29.6064 21.6503 28.3199 21.6355C27.048 21.6947 25.8206 20.6003 25.791 19.2398ZM26.4121 19.2398C26.3382 20.2454 27.2255 21.2806 28.3199 21.2806C29.4142 21.3397 30.3902 20.3046 30.3163 19.2398C30.3015 18.175 29.3255 17.3025 28.3199 17.3617C27.3438 17.3912 26.4417 18.2046 26.4121 19.2398Z" fill="black"/>
<path d="M35.9211 17.0215C35.7436 15.6166 36.8823 13.9603 38.6126 13.8568C40.3281 13.6645 41.94 15.3356 41.7773 17.0215C41.7182 17.8496 41.3041 18.6186 40.7125 19.1066C40.1062 19.6095 39.3372 19.8165 38.6274 19.7425C37.1485 19.6095 36.0986 18.4116 35.9211 17.0215ZM36.8676 17.0215C36.8084 17.4651 36.9267 18.0123 37.3112 18.3376C37.6809 18.663 38.1689 18.7961 38.6274 18.7369C39.5443 18.6038 40.0619 17.7017 39.8992 17.0363C39.7957 16.356 39.2781 15.8976 38.6274 15.7645C38.302 15.7053 37.9027 15.7349 37.5478 15.9567C37.1781 16.1637 36.9415 16.563 36.8676 17.0215Z" fill="black"/>
<path d="M59.9967 52.2327C59.9375 51.0792 60.322 49.837 61.165 48.9644C61.9931 48.0624 63.2501 47.6187 64.4332 47.6631C65.6311 47.7074 66.7846 48.2694 67.5388 49.1419C68.3078 49.9996 68.6923 51.1531 68.6183 52.2475C68.5444 53.3418 68.0564 54.377 67.2874 55.1016C66.5184 55.8411 65.4832 56.2403 64.4332 56.2699C63.3832 56.3143 62.2889 55.9446 61.4459 55.2199C60.603 54.5101 60.0558 53.3862 59.9967 52.2327ZM61.9783 52.2327C61.8009 53.5193 62.8656 55.0573 64.448 55.1164C66.0156 55.2199 67.3761 53.682 67.169 52.2327C67.0655 50.7538 65.6606 49.763 64.448 49.8961C63.2501 50.0144 62.1262 50.9017 61.9783 52.2327Z" fill="black"/>
<path d="M108.089 57.0981C107.985 54.8355 110.144 52.9278 112.259 53.0757C113.309 53.1201 114.329 53.5785 115.024 54.3327C115.719 55.0869 116.119 56.0925 116.104 57.0981C116.089 58.1038 115.69 59.0946 114.98 59.8192C114.27 60.5291 113.294 60.9875 112.259 61.0319C111.239 61.0762 110.174 60.7065 109.39 59.9671C108.606 59.2425 108.118 58.1925 108.089 57.0981ZM109.523 57.0981C109.405 58.5474 110.662 60.041 112.259 60.0854C113.856 60.2333 115.424 58.7544 115.335 57.0981C115.365 55.4418 113.797 54.0517 112.259 54.1996C111.49 54.244 110.78 54.5841 110.292 55.1313C109.789 55.6637 109.568 56.3883 109.523 57.0981Z" fill="black"/>
<path d="M108.015 38.5978C107.956 37.4887 108.37 36.3352 109.139 35.4627C109.908 34.6049 111.091 34.0725 112.274 34.0873C113.457 34.1021 114.61 34.6197 115.394 35.4627C116.178 36.3056 116.592 37.4739 116.533 38.583C116.459 40.8604 114.403 42.6794 112.274 42.5907C111.224 42.5759 110.174 42.1914 109.39 41.4668C108.577 40.7865 108.059 39.7069 108.015 38.5978ZM109.597 38.5978C109.553 39.2929 109.775 40.0323 110.263 40.5942C110.751 41.1562 111.49 41.5259 112.259 41.4963C113.028 41.4816 113.753 41.1414 114.255 40.5795C114.743 40.0175 114.98 39.2781 114.921 38.583C114.832 37.1485 113.531 36.0986 112.259 36.1577C111.032 36.1725 109.686 37.1485 109.597 38.5978Z" fill="black"/>
<path d="M116.666 45.5188C116.622 44.3949 117.065 43.2266 117.908 42.4428C118.736 41.659 119.875 41.2154 120.984 41.2598C123.276 41.2893 125.155 43.3745 125.036 45.5188C125.036 47.6779 123.143 49.5708 120.984 49.5856C119.919 49.63 118.825 49.2307 118.012 48.4913C117.198 47.7371 116.696 46.6427 116.666 45.5188ZM118.367 45.5188C118.248 46.8941 119.431 48.3286 120.969 48.373C121.724 48.4173 122.478 48.1068 123.025 47.5744C123.557 47.0272 123.853 46.273 123.838 45.5188C123.824 43.9808 122.374 42.7386 120.969 42.8717C119.55 42.9161 118.441 44.1583 118.367 45.5188Z" fill="black"/>
</svg>
