<svg width="123" height="135" viewBox="0 0 123 135" fill="none" xmlns="http://www.w3.org/2000/svg">
<g clip-path="url(#clip0)">
<path d="M0.74374 67.5C0.74374 35.0375 23.413 7.88866 53.7725 0.997263C56.1227 0.461431 58.5771 0.759115 60.7488 1.8159C84.9055 13.7828 101.536 38.699 101.536 67.5C101.536 96.301 84.9055 121.217 60.7488 133.169C58.592 134.241 56.1227 134.524 53.7725 133.988C23.413 127.111 0.74374 99.9625 0.74374 67.5Z" fill="white" stroke="white" stroke-miterlimit="10"/>
<path d="M18.3407 87.7426C18.177 85.2272 19.0547 82.5927 20.795 80.5833C22.5205 78.5739 25.2426 77.3385 27.9498 77.3981C30.657 77.4427 33.3196 78.6334 35.0749 80.613C36.8598 82.5778 37.7226 85.242 37.559 87.7426C37.4102 90.2729 36.2053 92.6246 34.4055 94.2024C32.6354 95.8099 30.2703 96.688 27.9498 96.6285C25.6293 96.5838 23.3237 95.7354 21.509 94.1875C19.6794 92.6395 18.4745 90.258 18.3407 87.7426ZM21.3454 87.7426C21.1966 89.4841 21.7321 91.3148 22.9221 92.7884C24.1121 94.247 26.031 95.1549 27.9647 95.0954C29.8984 95.0508 31.7578 94.1726 32.9775 92.7586C34.1972 91.3446 34.7476 89.4841 34.584 87.7426C34.2865 84.1853 31.0438 81.6996 27.9647 81.8633C26.4177 81.908 24.9153 82.4289 23.651 83.4262C22.3569 84.4085 21.4793 86.0011 21.3454 87.7426Z" fill="black"/>
<path d="M50.1728 105.172C50.0836 102.954 51.214 100.811 52.7759 99.3671C54.3526 97.8936 56.5095 97.1643 58.5771 97.2982C60.6298 97.4173 62.6082 98.3252 63.932 99.8137C65.2708 101.272 66.0294 103.222 66.0145 105.172C65.9996 107.122 65.2261 109.042 63.8725 110.471C62.5189 111.885 60.6149 112.837 58.5771 112.912C56.5541 113.016 54.4419 112.316 52.8503 110.888C51.2735 109.474 50.2769 107.36 50.1728 105.172ZM53.118 105.172C52.8354 108.06 55.2898 111.111 58.5771 111.289C60.1687 111.379 61.8644 110.843 63.0842 109.667C64.3039 108.536 65.0179 106.854 64.9881 105.157C64.9881 103.475 64.2444 101.823 63.0098 100.722C61.7752 99.6202 60.1538 99.0397 58.5771 99.1736C57.0004 99.2778 55.5575 100.052 54.5758 101.153C54.0849 101.719 53.713 102.359 53.4899 103.044C53.2519 103.743 53.1924 104.458 53.118 105.172Z" fill="black"/>
<path d="M76.4864 86.5518C76.3823 84.4234 77.1558 82.1759 78.6879 80.5833C80.22 78.9907 82.4661 78.1423 84.6527 78.2167C86.8393 78.2762 88.9366 79.2883 90.3349 80.8661C91.748 82.4289 92.4917 84.5276 92.3876 86.5518C92.2835 88.5761 91.391 90.5111 89.9779 91.8804C88.5648 93.2497 86.6162 94.0237 84.6527 94.0833C82.6892 94.1577 80.6662 93.4581 79.1192 92.0888C77.5425 90.7492 76.5756 88.6803 76.4864 86.5518ZM78.9556 86.5518C78.8515 88.0552 79.3721 89.6031 80.3836 90.8087C81.3951 92.0292 82.9867 92.8181 84.6378 92.8776C86.3038 92.9521 87.9698 92.2227 89.1151 91.0171C90.2754 89.8264 90.8704 88.1445 90.7514 86.537C90.6621 84.9295 89.9035 83.4262 88.7433 82.4289C87.583 81.4317 86.0807 80.9405 84.6378 81.0149C83.1801 81.0744 81.8265 81.7145 80.8001 82.6968C79.7589 83.6792 79.0449 85.0485 78.9556 86.5518Z" fill="black"/>
<path d="M65.122 79.3478C65.0625 77.9636 65.5831 76.5347 66.55 75.4779C67.502 74.4063 68.9449 73.7365 70.4175 73.7067C71.8901 73.6918 73.3924 74.2723 74.4039 75.3589C75.4303 76.4156 76.0253 77.8892 75.9658 79.3478C75.9212 80.8065 75.2667 82.2056 74.2254 83.1582C73.1842 84.1108 71.7859 84.6317 70.4175 84.5871C67.6507 84.5275 65.2113 82.1758 65.122 79.3478ZM65.8658 79.3478C65.8063 80.5386 66.2525 81.7739 67.1004 82.6521C67.9631 83.5303 69.1977 83.9917 70.4026 83.947C71.6075 83.9173 72.7677 83.3666 73.5561 82.5033C74.3444 81.64 74.7609 80.479 74.7014 79.3478C74.6419 78.2166 74.1808 77.145 73.3776 76.371C72.5743 75.6119 71.5182 75.1505 70.4026 75.1356C69.3019 75.0909 68.1714 75.4928 67.3086 76.2519C66.4608 77.0259 65.9253 78.1571 65.8658 79.3478Z" fill="black"/>
<path d="M56.569 62.9901C58.4913 62.9901 60.0497 61.4308 60.0497 59.5072C60.0497 57.5836 58.4913 56.0243 56.569 56.0243C54.6466 56.0243 53.0883 57.5836 53.0883 59.5072C53.0883 61.4308 54.6466 62.9901 56.569 62.9901Z" stroke="black" stroke-width="0.5" stroke-miterlimit="10"/>
<path d="M38.0052 39.5623C37.9457 38.3716 38.4366 37.1362 39.3291 36.3622C40.1918 35.5585 41.3818 35.112 42.5271 35.1864C43.6725 35.2459 44.7584 35.7817 45.5021 36.6004C46.2459 37.419 46.6326 38.5056 46.6029 39.5772C46.588 41.7503 44.7286 43.6406 42.5271 43.7299C41.4413 43.7895 40.3108 43.4174 39.4481 42.6583C38.6002 41.8843 38.0647 40.7382 38.0052 39.5623ZM40.1025 39.5623C39.9538 40.8424 41.0099 42.2713 42.5271 42.3755C43.2709 42.435 44.0444 42.1671 44.5947 41.6313C45.1451 41.0954 45.4426 40.3214 45.4277 39.5623C45.4129 37.9995 43.9105 36.7939 42.542 36.9725C41.8578 37.032 41.2479 37.3446 40.8165 37.8358C40.4149 38.3418 40.162 38.9223 40.1025 39.5623Z" fill="black"/>
<path d="M15.0236 30.4383C15.0236 29.7536 15.3211 29.0987 15.7971 28.6224C16.2731 28.161 16.9573 27.908 17.6118 27.9229C18.9505 27.9377 20.081 29.1434 20.0364 30.4383C20.081 31.7332 18.9505 32.924 17.6118 32.9537C16.9573 32.9686 16.2879 32.7305 15.7971 32.2542C15.3211 31.7928 15.0236 31.123 15.0236 30.4383ZM15.7227 30.4383C15.6929 31.4355 16.5557 32.3733 17.5969 32.403C18.653 32.4774 19.6497 31.5397 19.6348 30.4383C19.6497 29.3369 18.653 28.3992 17.5969 28.4736C16.5706 28.5033 15.6929 29.4411 15.7227 30.4383Z" fill="black"/>
<path d="M16.7788 23.7701C16.7193 22.9813 17.0317 22.118 17.6416 21.5822C18.2365 21.0463 19.0547 20.7486 19.8282 20.8082C21.4198 20.8975 22.5949 22.371 22.4759 23.7701C22.4313 25.1841 21.2413 26.3749 19.8282 26.4642C19.129 26.5237 18.3704 26.2856 17.7903 25.8093C17.2102 25.3181 16.8383 24.559 16.7788 23.7701ZM18.4299 23.7701C18.296 24.4995 18.8762 25.4521 19.843 25.5414C20.8099 25.7051 21.7619 24.7525 21.6578 23.7701C21.5983 22.7878 20.6314 22.1031 19.843 22.2668C19.01 22.3561 18.5638 23.0706 18.4299 23.7701Z" fill="black"/>
<path d="M23.175 17.9206C23.0857 16.5662 24.3204 15.2415 25.7186 15.3457C27.1019 15.3457 28.2622 16.6108 28.1878 17.9206C28.1729 19.2453 27.0127 20.3468 25.7186 20.3319C24.4394 20.3914 23.1899 19.29 23.175 17.9206ZM23.7997 17.9206C23.7254 18.9328 24.6179 19.9747 25.7186 19.9747C26.8193 20.0342 27.8011 18.9923 27.7267 17.9206C27.7118 16.849 26.7301 15.9708 25.7186 16.0303C24.7368 16.0601 23.8295 16.8787 23.7997 17.9206Z" fill="black"/>
<path d="M33.3643 15.688C33.1858 14.274 34.3311 12.607 36.0715 12.5028C37.797 12.3093 39.4183 13.9912 39.2547 15.688C39.1952 16.5215 38.7787 17.2955 38.1837 17.7867C37.5738 18.2928 36.8003 18.5011 36.0863 18.4267C34.5989 18.2928 33.5279 17.0871 33.3643 15.688ZM34.3162 15.688C34.2567 16.1345 34.3757 16.6853 34.7625 17.0127C35.1344 17.3402 35.6252 17.4741 36.0863 17.4146C37.0086 17.2806 37.5292 16.3578 37.3656 15.7029C37.2615 15.0182 36.7408 14.5568 36.0863 14.4229C35.7591 14.3633 35.3575 14.3931 35.0005 14.6163C34.6286 14.8247 34.3906 15.2266 34.3162 15.688Z" fill="black"/>
<path d="M57.5805 51.1274C57.521 49.9665 57.9077 48.7162 58.7556 47.838C59.5886 46.9301 60.8529 46.4835 62.0429 46.5282C63.2478 46.5728 64.408 47.1384 65.1666 48.0166C65.9401 48.8799 66.3269 50.0409 66.2525 51.1423C66.1781 52.2437 65.6873 53.2856 64.9138 54.015C64.1403 54.7592 63.099 55.1611 62.0429 55.1908C60.9868 55.2355 59.8861 54.8634 59.0382 54.134C58.1903 53.4196 57.64 52.2884 57.5805 51.1274ZM59.5588 51.1274C59.3803 52.4223 60.4513 53.9703 62.0429 54.0298C63.6197 54.134 64.9881 52.5861 64.7799 51.1274C64.6758 49.639 63.2627 48.6418 62.0429 48.7757C60.8529 48.8948 59.7225 49.7878 59.5588 51.1274Z" fill="black"/>
<path d="M105.953 56.0243C105.849 53.747 108.021 51.8269 110.148 51.9758C111.204 52.0204 112.231 52.4818 112.93 53.2409C113.629 54 114.03 55.0122 114.016 56.0243C114.001 57.0364 113.599 58.0337 112.885 58.763C112.171 59.4774 111.189 59.9388 110.148 59.9835C109.122 60.0281 108.051 59.656 107.262 58.9118C106.474 58.1825 105.983 57.1257 105.953 56.0243ZM107.396 56.0243C107.277 57.4829 108.542 58.9862 110.148 59.0309C111.755 59.1797 113.331 57.6913 113.242 56.0243C113.272 54.3572 111.695 52.9581 110.148 53.107C109.375 53.1516 108.661 53.494 108.17 54.0447C107.664 54.5805 107.441 55.3098 107.396 56.0243Z" fill="black"/>
<path d="M105.879 37.4041C105.82 36.2878 106.236 35.1268 107.01 34.2487C107.783 33.3854 108.973 32.8496 110.163 32.8644C111.353 32.8793 112.513 33.4003 113.302 34.2487C114.09 35.0971 114.506 36.2729 114.447 37.3892C114.373 39.6814 112.305 41.5122 110.163 41.4229C109.107 41.408 108.051 41.021 107.262 40.2917C106.429 39.607 105.924 38.5204 105.879 37.4041ZM107.471 37.4041C107.426 38.1037 107.649 38.8479 108.14 39.4135C108.631 39.9791 109.375 40.3512 110.148 40.3214C110.922 40.3066 111.651 39.9642 112.156 39.3986C112.647 38.833 112.885 38.0888 112.826 37.3892C112.736 35.9455 111.427 34.8887 110.148 34.9482C108.914 34.9631 107.56 35.9306 107.471 37.4041Z" fill="black"/>
<path d="M114.581 44.3699C114.536 43.2387 114.982 42.0629 115.83 41.274C116.663 40.4851 117.809 40.0386 118.924 40.0833C121.23 40.113 123.119 42.2117 123 44.3699C123 46.543 121.096 48.4482 118.924 48.4631C117.853 48.5077 116.753 48.1059 115.934 47.3616C115.116 46.6026 114.611 45.5011 114.581 44.3699ZM116.291 44.3699C116.172 45.7542 117.362 47.1979 118.909 47.2426C119.668 47.2872 120.427 46.9747 120.977 46.4388C121.513 45.8881 121.81 45.129 121.795 44.3699C121.78 42.822 120.323 41.5717 118.909 41.7056C117.481 41.7503 116.366 43.0006 116.291 44.3699Z" fill="black"/>
</g>
<defs>
<clipPath id="clip0">
<rect width="123" height="135" fill="white"/>
</clipPath>
</defs>
</svg>
