<svg width="117" height="135" viewBox="0 0 117 135" fill="none" xmlns="http://www.w3.org/2000/svg">
<path d="M67.532 134.271C30.646 134.271 0.728973 104.383 0.728973 67.5C0.728973 30.6169 30.6314 0.728638 67.532 0.728638V134.271Z" fill="white" stroke="white" stroke-miterlimit="10"/>
<path d="M110.804 87.3187C110.658 85.6137 109.812 84.069 108.544 83.0926C107.305 82.1017 105.832 81.6062 104.316 81.5625C101.313 81.4022 98.1342 83.8358 97.828 87.3187C97.6677 89.0091 98.1925 90.8452 99.4026 92.2296C100.598 93.614 102.421 94.4738 104.316 94.5175C106.211 94.5612 108.092 93.6869 109.258 92.2588C110.425 90.8161 110.964 89.0091 110.804 87.3187ZM113.749 87.3187C113.618 89.7814 112.437 92.113 110.629 93.6286C108.85 95.1587 106.605 95.9893 104.316 96.0185C102.041 96.0768 99.7234 95.217 97.9884 93.6431C96.2243 92.0985 95.0433 89.7814 94.8976 87.3187C94.7372 84.8559 95.5828 82.2474 97.3323 80.3384C99.0673 78.4148 101.662 77.2345 104.316 77.1907C106.969 77.1324 109.637 78.342 111.329 80.3093C113.049 82.262 113.909 84.8559 113.749 87.3187Z" fill="black"/>
<path d="M54.3522 86.1528C54.2647 84.681 53.5503 83.3403 52.5297 82.3931C51.5237 81.4313 50.197 80.8047 48.7682 80.7464C47.354 80.6736 45.8815 81.1545 44.7443 82.1308C43.6071 83.1072 42.8636 84.579 42.7761 86.1528C42.6595 87.7267 43.2572 89.3588 44.3798 90.5392C45.5024 91.7195 47.1353 92.419 48.7682 92.3607C50.4011 92.3024 51.9466 91.5301 52.938 90.3352C53.9439 89.1402 54.4542 87.6247 54.3522 86.1528ZM56.7578 86.1528C56.6557 88.2367 55.708 90.2623 54.1772 91.5738C52.6609 92.8999 50.6781 93.5994 48.7537 93.5265C46.8292 93.4682 44.9338 92.7105 43.5342 91.3698C42.1346 90.0291 41.2744 88.1493 41.1724 86.1528C41.0703 84.171 41.7847 82.1162 43.1843 80.5861C44.5548 79.0414 46.6251 78.0651 48.7537 77.9922C50.8823 77.9193 53.0837 78.75 54.6 80.3092C56.1163 81.8685 56.8598 84.069 56.7578 86.1528Z" fill="black"/>
<path d="M76.2796 63.0845C78.1638 63.0845 79.6912 61.5578 79.6912 59.6745C79.6912 57.7912 78.1638 56.2645 76.2796 56.2645C74.3955 56.2645 72.868 57.7912 72.868 59.6745C72.868 61.5578 74.3955 63.0845 76.2796 63.0845Z" stroke="black" stroke-width="0.5" stroke-miterlimit="10"/>
<path d="M92.4191 40.1473C92.3607 39.5207 92.1129 38.9524 91.7193 38.4569C91.311 37.976 90.6987 37.67 90.028 37.6117C88.6867 37.4368 87.2142 38.6027 87.1996 40.1473C87.1705 40.8905 87.4621 41.6483 88.0161 42.1729C88.5555 42.6975 89.3136 42.9598 90.0426 42.9016C91.5297 42.7995 92.5649 41.386 92.4191 40.1473ZM94.4748 40.1473C94.4165 41.3131 93.8916 42.4207 93.046 43.1639C92.215 43.9071 91.0923 44.2714 90.028 44.2131C87.8703 44.1256 86.0479 42.2749 86.0333 40.1473C86.0041 39.1127 86.3832 38.0343 87.1122 37.2328C87.8411 36.4313 88.8908 35.9067 90.028 35.8484C91.1507 35.7756 92.317 36.2128 93.1626 36.9997C94.052 37.772 94.5331 38.9815 94.4748 40.1473Z" fill="black"/>
<path d="M116.315 31.2144C116.344 30.238 115.498 29.3199 114.478 29.2908C113.443 29.2179 112.466 30.136 112.48 31.2144C112.466 32.2927 113.443 33.2108 114.478 33.138C115.484 33.1088 116.344 32.1907 116.315 31.2144ZM117 31.2144C117 31.8847 116.708 32.5259 116.242 32.9922C115.775 33.444 115.105 33.6917 114.463 33.6771C113.151 33.6626 112.043 32.4822 112.087 31.2144C112.043 29.9466 113.151 28.7808 114.463 28.7516C115.105 28.737 115.761 28.9702 116.242 29.4365C116.708 29.9029 117 30.5586 117 31.2144Z" fill="black"/>
<path d="M113.661 24.6859C113.53 24.001 113.093 23.3161 112.276 23.2141C111.504 23.0538 110.556 23.7241 110.498 24.6859C110.396 25.6331 111.329 26.5803 112.276 26.42C113.224 26.318 113.793 25.3854 113.661 24.6859ZM115.28 24.6859C115.221 25.4728 114.857 26.216 114.288 26.6823C113.72 27.1632 112.976 27.3818 112.291 27.3235C110.891 27.2215 109.739 26.0703 109.696 24.6859C109.579 23.3161 110.731 21.8734 112.291 21.786C113.049 21.7277 113.851 22.0046 114.434 22.5437C115.032 23.0538 115.323 23.899 115.28 24.6859Z" fill="black"/>
<path d="M108.398 18.9589C108.369 17.9534 107.48 17.1519 106.517 17.1082C105.526 17.0499 104.578 17.9097 104.549 18.9589C104.476 20.0081 105.424 21.0136 106.517 20.9699C107.596 20.9699 108.471 19.9498 108.398 18.9589ZM109.01 18.9589C108.996 20.2996 107.771 21.3779 106.517 21.3196C105.264 21.3342 104.112 20.2413 104.097 18.9589C104.01 17.6765 105.161 16.4378 106.517 16.4378C107.888 16.3358 109.098 17.6328 109.01 18.9589Z" fill="black"/>
<path d="M98.0905 16.773C98.0176 16.3212 97.7697 15.9278 97.4198 15.7092C97.0699 15.4906 96.6908 15.4615 96.3555 15.5197C95.714 15.6509 95.2037 16.1026 95.1017 16.773C94.9413 17.4287 95.4516 18.3177 96.3555 18.4488C96.7929 18.5217 97.2886 18.376 97.6531 18.0554C98.0467 17.7493 98.1488 17.2102 98.0905 16.773ZM99.0236 16.773C98.8486 18.1428 97.8135 19.3232 96.3701 19.4689C95.6703 19.5418 94.8976 19.3232 94.3144 18.8423C93.7166 18.3614 93.323 17.589 93.2647 16.7876C93.1043 15.1263 94.6789 13.4796 96.3847 13.669C98.0759 13.7565 99.2131 15.3886 99.0236 16.773Z" fill="black"/>
<path d="M26.4617 56.2646C26.418 55.5652 26.1993 54.8657 25.7036 54.3265C25.2224 53.7873 24.508 53.4521 23.7645 53.4084C22.2482 53.2627 20.7028 54.6325 20.732 56.2646C20.6445 57.8968 22.1899 59.354 23.7645 59.2083C25.3391 59.15 26.5783 57.6928 26.4617 56.2646ZM27.8759 56.2646C27.8467 57.343 27.3656 58.3922 26.5929 59.0917C25.8202 59.8058 24.7705 60.1701 23.7645 60.1409C22.7439 60.1118 21.7817 59.66 21.0819 58.946C20.3821 58.2319 19.9884 57.2556 19.9738 56.2646C19.9593 55.2737 20.3529 54.2828 21.0381 53.5396C21.7234 52.7964 22.7294 52.3446 23.7645 52.3009C25.8494 52.1552 27.978 54.035 27.8759 56.2646Z" fill="black"/>
<path d="M26.3888 38.0343C26.3013 36.6062 24.9891 35.6444 23.7645 35.6444C22.5106 35.5861 21.2277 36.6208 21.1402 38.0343C21.0819 38.7192 21.3151 39.4479 21.7962 40.0016C22.2774 40.5554 23.0063 40.876 23.7645 40.9051C24.5226 40.9343 25.2516 40.5699 25.7327 40.0162C26.2138 39.4479 26.4325 38.7192 26.3888 38.0343ZM27.9488 38.0343C27.905 39.1273 27.3948 40.1911 26.6075 40.876C25.8202 41.59 24.785 41.9689 23.7645 41.9835C21.6796 42.0563 19.6385 40.2785 19.5656 38.0343C19.5073 36.9414 19.9009 35.7902 20.6882 34.9595C21.4609 34.1143 22.5981 33.6188 23.7645 33.6043C24.9308 33.5751 26.0826 34.1143 26.8553 34.9595C27.6134 35.8047 28.0071 36.9414 27.9488 38.0343Z" fill="black"/>
<path d="M17.7432 44.8543C17.6703 43.5282 16.5914 42.2895 15.1772 42.2458C13.7922 42.1147 12.3634 43.3388 12.3488 44.8543C12.3342 45.5975 12.6258 46.3407 13.1507 46.8799C13.6901 47.4045 14.4336 47.7105 15.1772 47.6668C16.6935 47.6231 17.8452 46.2096 17.7432 44.8543ZM19.4198 44.8543C19.3907 45.9618 18.895 47.0548 18.0931 47.7834C17.2912 48.512 16.2123 48.9055 15.1626 48.8618C13.034 48.8472 11.1533 46.9819 11.1679 44.8543C11.0512 42.7267 12.9028 40.6866 15.1626 40.6574C16.2561 40.6283 17.3933 41.0509 18.1951 41.8232C19.0262 42.5956 19.4636 43.7468 19.4198 44.8543Z" fill="black"/>
</svg>
