<?xml version="1.0" encoding="utf-8"?>
<!-- Generator: Adobe Illustrator 24.0.0, SVG Export Plug-In . SVG Version: 6.00 Build 0)  -->
<svg version="1.1" id="Layer_1" xmlns="http://www.w3.org/2000/svg" xmlns:xlink="http://www.w3.org/1999/xlink" x="0px" y="0px"
	 viewBox="0 0 120 131" style="enable-background:new 0 0 120 131;" xml:space="preserve">
<style type="text/css">
	.st0{fill:#FFFFFF;stroke:#FFFFFF;stroke-width:1.4175;stroke-miterlimit:10;}
	.st1{fill:none;stroke:#000000;stroke-width:0.7088;stroke-miterlimit:10;}
</style>
<g>
	<g>
		<path class="st0" d="M116.7,65.5c0-30.9-21.6-56.8-50.5-63.3c-2.2-0.5-4.6-0.2-6.6,0.8c-23,11.4-38.9,35.1-38.9,62.5
			c0,27.4,15.8,51.2,38.9,62.5c2.1,1,4.4,1.3,6.6,0.8C95.1,122.3,116.7,96.4,116.7,65.5z"/>
	</g>
	<g>
		<g>
			<path d="M36.5,101.4c-0.1-1,0.2-2.1,0.7-3c0.4-0.9,1.1-1.8,1.8-2.5c1.5-1.4,3.6-2.1,5.5-2c2,0.1,3.8,1,5.1,2.4
				c1.3,1.4,2,3.2,2,5.1c0,1.9-0.8,3.7-2,5c-1.3,1.4-3.1,2.2-5,2.3c-1.9,0.1-3.9-0.6-5.5-1.9C37.6,105.5,36.6,103.5,36.5,101.4z
				 M39.3,101.4c-0.1,1.4,0.4,2.8,1.3,3.9c0.9,1.1,2.3,1.8,3.9,1.9c1.5,0.1,3.1-0.4,4.3-1.5c1.2-1.1,1.8-2.7,1.8-4.3
				c0-1.6-0.7-3.2-1.9-4.2c-1.2-1.1-2.7-1.6-4.2-1.5c-1.5,0.1-2.9,0.8-3.8,1.9c-0.5,0.5-0.8,1.1-1,1.8
				C39.4,100,39.4,100.7,39.3,101.4z"/>
		</g>
		<g>
			<path d="M61.6,83.6c-0.1-2,0.6-4.2,2.1-5.7c1.5-1.5,3.6-2.3,5.7-2.3c2.1,0.1,4.1,1,5.4,2.5c1.3,1.5,2.1,3.5,2,5.4
				c-0.1,1.9-0.9,3.8-2.3,5.1c-1.4,1.3-3.2,2-5.1,2.1c-1.9,0.1-3.8-0.6-5.3-1.9C62.6,87.6,61.7,85.7,61.6,83.6z M63.9,83.6
				c-0.1,1.4,0.4,2.9,1.4,4.1c1,1.2,2.5,1.9,4.1,2c1.6,0.1,3.2-0.6,4.3-1.8c1.1-1.1,1.7-2.7,1.6-4.3c-0.1-1.5-0.8-3-1.9-3.9
				c-1.1-1-2.5-1.4-3.9-1.3c-1.4,0-2.7,0.7-3.7,1.6C64.7,80.9,64,82.2,63.9,83.6z"/>
		</g>
		<g>
			<path d="M50.7,76.8c-0.1-1.3,0.4-2.7,1.4-3.7c0.9-1,2.3-1.7,3.7-1.7c1.4,0,2.8,0.5,3.8,1.6c1,1,1.6,2.4,1.5,3.8
				c0,1.4-0.7,2.7-1.7,3.6c-1,0.9-2.3,1.4-3.6,1.4C53.2,81.7,50.8,79.5,50.7,76.8z M51.5,76.8c0,1.1,0.4,2.3,1.2,3.2
				c0.8,0.8,2,1.3,3.2,1.2c1.2,0,2.3-0.5,3-1.4c0.8-0.8,1.1-1.9,1.1-3c-0.1-1.1-0.5-2.1-1.3-2.8c-0.8-0.7-1.8-1.2-2.8-1.2
				c-1.1,0-2.1,0.3-2.9,1.1C52,74.6,51.5,75.7,51.5,76.8z"/>
		</g>
		<circle class="st1" cx="42.6" cy="57.9" r="3.3"/>
		<g>
			<path d="M24.9,38.9c-0.1-1.1,0.4-2.3,1.3-3.1c0.8-0.8,2-1.2,3.1-1.1c1.1,0.1,2.1,0.6,2.8,1.3c0.7,0.8,1.1,1.8,1,2.8
				c0,1-0.4,2-1.2,2.7c-0.7,0.7-1.7,1.2-2.7,1.2c-1,0.1-2.1-0.3-2.9-1C25.5,41.1,25,40,24.9,38.9z M26.9,38.9
				c-0.1,1.2,0.9,2.6,2.3,2.7c0.7,0.1,1.4-0.2,2-0.7c0.5-0.5,0.8-1.2,0.8-2c0-0.7-0.4-1.4-0.9-1.9c-0.5-0.5-1.2-0.7-1.9-0.6
				c-0.6,0.1-1.2,0.4-1.6,0.8C27.2,37.7,27,38.3,26.9,38.9z"/>
		</g>
		<g>
			<path d="M3,30.2c0-0.6,0.3-1.3,0.7-1.7c0.5-0.4,1.1-0.7,1.7-0.7c1.3,0,2.4,1.2,2.3,2.4c0,1.2-1,2.4-2.3,2.4
				c-0.6,0-1.3-0.2-1.7-0.7C3.3,31.5,3,30.9,3,30.2z M3.7,30.2c0,1,0.8,1.8,1.8,1.9c0.5,0,1-0.2,1.4-0.5c0.4-0.3,0.6-0.8,0.6-1.4
				c0-0.5-0.2-1-0.6-1.4c-0.4-0.3-0.9-0.5-1.4-0.5C4.5,28.4,3.6,29.3,3.7,30.2z"/>
		</g>
		<g>
			<path d="M4.7,23.9c-0.1-0.8,0.2-1.6,0.8-2.1C6.1,21.2,6.9,21,7.6,21C8.3,21.1,9,21.4,9.5,22c0.5,0.5,0.7,1.2,0.6,1.9
				c0,1.3-1.2,2.5-2.5,2.6c-0.7,0.1-1.4-0.2-1.9-0.6C5.1,25.3,4.7,24.6,4.7,23.9z M6.3,23.9c-0.1,0.7,0.4,1.6,1.3,1.7
				c0.4,0.1,0.9-0.1,1.3-0.4c0.3-0.3,0.5-0.8,0.5-1.3c0-0.9-1-1.6-1.7-1.4C6.8,22.5,6.4,23.2,6.3,23.9z"/>
		</g>
		<g>
			<path d="M10.8,18.3c0-0.6,0.2-1.3,0.7-1.8c0.5-0.5,1.1-0.7,1.8-0.7c1.3,0,2.4,1.2,2.3,2.5c0,0.6-0.3,1.2-0.7,1.6
				c-0.4,0.4-1,0.7-1.6,0.7C12,20.6,10.8,19.6,10.8,18.3z M11.4,18.3c-0.1,1,0.8,2,1.8,2c1.1,0.1,2-0.9,1.9-2c0-1-1-1.8-1.9-1.8
				C12.3,16.5,11.4,17.3,11.4,18.3z"/>
		</g>
		<g>
			<path d="M20.5,16.2c-0.1-0.7,0.1-1.4,0.6-2c0.4-0.6,1.2-1,2-1.1c0.8-0.1,1.6,0.3,2.2,0.8c0.6,0.6,0.9,1.4,0.8,2.2
				c0,0.8-0.4,1.5-1,2c-0.6,0.5-1.3,0.7-2,0.6c-0.7-0.1-1.3-0.4-1.8-0.9C20.9,17.4,20.5,16.8,20.5,16.2z M21.4,16.2
				c-0.1,0.4,0.1,0.9,0.4,1.3c0.4,0.3,0.8,0.4,1.3,0.4c0.9-0.1,1.4-1,1.2-1.6c-0.1-0.7-0.6-1.1-1.2-1.2c-0.3-0.1-0.7,0-1,0.2
				C21.7,15.3,21.4,15.7,21.4,16.2z"/>
		</g>
		<g>
			<path d="M43.6,49.9c-0.1-1.1,0.3-2.3,1.1-3.1c0.8-0.9,2-1.3,3.1-1.3c1.2,0,2.3,0.6,3,1.4c0.7,0.8,1.1,1.9,1,3
				c-0.1,1.1-0.5,2-1.3,2.7c-0.7,0.7-1.7,1.1-2.7,1.1c-1,0-2.1-0.3-2.9-1C44.1,52.1,43.6,51,43.6,49.9z M45.5,49.9
				c-0.1,0.6,0.1,1.3,0.5,1.8c0.4,0.5,1.1,0.9,1.8,0.9c0.7,0,1.5-0.3,1.9-0.8c0.5-0.5,0.7-1.3,0.7-1.9c-0.1-0.7-0.4-1.3-0.9-1.7
				c-0.5-0.4-1.1-0.6-1.7-0.5c-0.6,0-1.1,0.3-1.6,0.7C45.8,48.7,45.5,49.3,45.5,49.9z"/>
		</g>
		<g>
			<path d="M89.7,54.6c0-1.1,0.4-2.1,1.2-2.8c0.8-0.7,1.8-1.1,2.8-1.1c1,0,2,0.5,2.6,1.2c0.7,0.7,1.1,1.7,1,2.6c0,1-0.4,1.9-1.1,2.6
				c-0.7,0.7-1.6,1.1-2.6,1.2c-1,0-2-0.3-2.8-1C90.2,56.6,89.7,55.6,89.7,54.6z M91,54.6c-0.1,1.4,1.1,2.8,2.6,2.9
				c1.5,0.1,3-1.3,2.9-2.9c0-0.8-0.3-1.5-0.9-2c-0.6-0.5-1.3-0.8-2-0.7c-0.7,0-1.4,0.4-1.9,0.9C91.3,53.2,91.1,53.9,91,54.6z"/>
		</g>
		<g>
			<path d="M89.6,36.8c-0.1-1.1,0.3-2.2,1.1-3c0.7-0.8,1.9-1.3,3-1.3c1.1,0,2.2,0.5,3,1.3c0.8,0.8,1.1,1.9,1.1,3
				c0,1.1-0.5,2.1-1.3,2.8c-0.8,0.7-1.8,1.1-2.8,1.1c-1,0-2-0.4-2.8-1.1C90.1,38.9,89.6,37.9,89.6,36.8z M91.1,36.8
				c0,0.7,0.2,1.4,0.6,1.9c0.5,0.5,1.2,0.9,1.9,0.9c0.7,0,1.4-0.3,1.9-0.9c0.5-0.5,0.7-1.2,0.6-1.9c-0.1-1.4-1.3-2.4-2.6-2.3
				c-0.6,0-1.2,0.2-1.7,0.6C91.5,35.6,91.2,36.2,91.1,36.8z"/>
		</g>
		<g>
			<path d="M97.9,43.5c0-1.1,0.4-2.2,1.2-3c0.8-0.8,1.9-1.2,3-1.1c1.1,0,2.1,0.5,2.8,1.3c0.7,0.8,1.1,1.8,1.1,2.8
				c0,2.1-1.8,3.9-3.9,3.9c-1,0-2.1-0.3-2.8-1.1C98.4,45.6,97.9,44.6,97.9,43.5z M99.5,43.5c-0.1,1.3,1,2.7,2.5,2.7
				c0.7,0,1.4-0.3,2-0.8c0.5-0.5,0.8-1.2,0.8-2c0-0.7-0.4-1.4-0.9-1.9c-0.5-0.5-1.2-0.7-1.9-0.7C100.6,41,99.6,42.2,99.5,43.5z"/>
		</g>
	</g>
</g>
</svg>
