<?xml version="1.0" encoding="utf-8"?>
<!-- Generator: Adobe Illustrator 24.0.0, SVG Export Plug-In . SVG Version: 6.00 Build 0)  -->
<svg version="1.1" id="Layer_1" xmlns="http://www.w3.org/2000/svg" xmlns:xlink="http://www.w3.org/1999/xlink" x="0px" y="0px"
	 viewBox="0 0 120 131" style="enable-background:new 0 0 120 131;" xml:space="preserve">
<style type="text/css">
	.st0{fill:#FFFFFF;stroke:#FFFFFF;stroke-width:1.3923;stroke-miterlimit:10;}
	.st1{fill:none;stroke:#000000;stroke-width:0.6961;stroke-miterlimit:10;}
</style>
<g>
	<g>
		<path class="st0" d="M54.4,129.3c35.2,0,63.8-28.6,63.8-63.8S89.7,1.7,54.4,1.7V129.3z"/>
		<g>
			<path d="M96.4,84.4c-0.1-1.6-1-3.1-2.2-4c-1.2-0.9-2.6-1.4-4-1.5c-1.4-0.1-2.9,0.5-4.1,1.4c-1.2,1-2,2.4-2.1,4.1
				c-0.2,1.6,0.4,3.4,1.5,4.7c1.1,1.3,2.9,2.1,4.7,2.2c1.8,0,3.6-0.8,4.7-2.2C96,87.8,96.5,86.1,96.4,84.4z M99.2,84.4
				c-0.1,2.4-1.3,4.6-3,6c-1.7,1.5-3.8,2.3-6,2.3c-2.2,0.1-4.4-0.8-6-2.3c-1.7-1.5-2.8-3.7-2.9-6c-0.2-2.3,0.7-4.8,2.3-6.7
				c0.8-0.9,1.9-1.7,3-2.2c1.1-0.5,2.4-0.8,3.7-0.8c2.5-0.1,5.1,1.1,6.7,3C98.5,79.6,99.3,82.1,99.2,84.4z"/>
		</g>
		<g>
			<path d="M66.6,100.7c-0.1-0.7-0.1-1.3-0.3-2c-0.2-0.6-0.6-1.2-1-1.8c-0.9-1-2.3-1.8-3.7-1.9c-1.5-0.1-3,0.4-4.2,1.4
				c-1.1,1-1.8,2.6-1.8,4.2c0,1.6,0.6,3.1,1.8,4.2c1.1,1.1,2.7,1.6,4.2,1.5c1.5-0.1,2.9-0.8,3.8-1.9
				C66.3,103.5,66.7,102.1,66.6,100.7z M69.4,100.7c-0.1,2.1-1,4-2.5,5.4c-1.5,1.3-3.5,2-5.4,1.9c-1.9-0.1-3.7-1-5-2.3
				c-1.3-1.3-2-3.1-2-5c0-1.8,0.7-3.7,2-5c1.3-1.4,3.1-2.3,5-2.4c1.9-0.1,4,0.6,5.4,1.9c0.7,0.7,1.4,1.5,1.8,2.4
				C69.2,98.7,69.4,99.7,69.4,100.7z"/>
		</g>
		<g>
			<path d="M42.4,83.3c-0.1-1.4-0.8-2.7-1.7-3.6c-1-0.9-2.2-1.5-3.6-1.6c-1.4-0.1-2.8,0.4-3.8,1.3c-1.1,0.9-1.8,2.3-1.9,3.8
				c-0.1,1.5,0.5,3.1,1.5,4.2c1.1,1.1,2.6,1.8,4.2,1.7c1.6,0,3-0.8,4-1.9C42.1,86.2,42.5,84.7,42.4,83.3z M44.7,83.3
				c-0.1,2-1,3.9-2.5,5.2c-1.4,1.3-3.3,1.9-5.2,1.9c-1.8-0.1-3.7-0.8-5-2.1c-1.3-1.3-2.2-3.1-2.3-5c-0.1-1.9,0.6-3.9,1.9-5.3
				c1.3-1.5,3.3-2.4,5.3-2.5c2-0.1,4.2,0.7,5.6,2.2C44.1,79.2,44.8,81.3,44.7,83.3z"/>
		</g>
		<circle class="st1" cx="63.4" cy="58" r="3.3"/>
		<g>
			<path d="M78.8,39.4c-0.1-0.6-0.3-1.1-0.7-1.6c-0.4-0.5-1-0.7-1.6-0.8c-0.6-0.1-1.3,0.1-1.8,0.6c-0.5,0.4-0.9,1.1-0.9,1.8
				c0,0.7,0.3,1.4,0.8,1.9c0.5,0.5,1.2,0.8,1.9,0.7C77.9,41.9,78.9,40.6,78.8,39.4z M80.8,39.4c-0.1,1.1-0.6,2.2-1.4,2.9
				c-0.8,0.7-1.9,1.1-2.9,1c-1-0.1-2-0.5-2.7-1.2c-0.7-0.7-1.1-1.7-1.1-2.7c0-1,0.3-2,1-2.8c0.7-0.8,1.7-1.3,2.8-1.3
				c1.1-0.1,2.2,0.3,3,1.1C80.4,37.1,80.8,38.3,80.8,39.4z"/>
		</g>
		<g>
			<path d="M101.6,30.8c0-0.9-0.8-1.8-1.8-1.8c-0.5,0-1,0.2-1.3,0.5c-0.4,0.3-0.6,0.8-0.6,1.3c0,0.5,0.2,1,0.6,1.3
				c0.4,0.3,0.9,0.5,1.3,0.5C100.8,32.6,101.6,31.8,101.6,30.8z M102.3,30.8c0,0.6-0.3,1.3-0.7,1.7c-0.5,0.4-1.1,0.7-1.7,0.7
				c-1.3,0-2.3-1.1-2.3-2.3c0-1.2,1-2.3,2.3-2.3c0.6,0,1.2,0.2,1.7,0.7C102,29.6,102.3,30.2,102.3,30.8z"/>
		</g>
		<g>
			<path d="M99.1,24.6c-0.1-0.7-0.5-1.3-1.3-1.4c-0.7-0.1-1.6,0.5-1.7,1.4c0,0.4,0.1,0.9,0.5,1.2c0.3,0.3,0.8,0.5,1.2,0.4
				C98.7,26.2,99.2,25.3,99.1,24.6z M100.6,24.6c0,0.7-0.4,1.5-1,1.9c-0.5,0.5-1.3,0.7-1.9,0.6c-1.3-0.1-2.4-1.2-2.5-2.5
				c-0.1-1.3,1-2.7,2.5-2.8c0.7-0.1,1.5,0.2,2,0.7C100.4,23,100.7,23.8,100.6,24.6z"/>
		</g>
		<g>
			<path d="M94.1,19.1c0-1-0.9-1.7-1.8-1.8c-0.9,0-1.9,0.8-1.9,1.8c-0.1,1,0.8,2,1.9,1.9C93.3,21,94.1,20.1,94.1,19.1z M94.6,19.1
				c0,1.3-1.2,2.3-2.4,2.3c-0.6,0-1.2-0.2-1.6-0.7c-0.4-0.4-0.7-1-0.7-1.6c-0.1-1.2,1-2.4,2.3-2.4c0.6,0,1.3,0.2,1.7,0.7
				C94.4,17.9,94.7,18.5,94.6,19.1z"/>
		</g>
		<g>
			<path d="M84.2,17c-0.1-0.4-0.3-0.8-0.6-1c-0.3-0.2-0.7-0.2-1-0.2C82,16,81.5,16.4,81.4,17c-0.1,0.6,0.3,1.5,1.2,1.6
				c0.4,0.1,0.9-0.1,1.2-0.4C84.2,18,84.3,17.5,84.2,17z M85.1,17c-0.1,0.7-0.4,1.3-0.8,1.7c-0.4,0.5-1,0.8-1.7,0.9
				c-0.7,0.1-1.4-0.1-2-0.6c-0.6-0.5-1-1.2-1-2c0-0.8,0.3-1.6,0.8-2.2c0.6-0.6,1.4-0.9,2.2-0.8c0.8,0,1.5,0.5,1.9,1
				C85,15.7,85.2,16.4,85.1,17z"/>
		</g>
		<g>
			<path d="M60.6,50.2c-0.1-0.6-0.4-1.1-0.8-1.5c-0.4-0.4-0.9-0.6-1.5-0.7c-0.6,0-1.2,0.1-1.7,0.5c-0.5,0.4-0.8,1-0.9,1.7
				c-0.1,0.7,0.2,1.4,0.7,1.9c0.5,0.5,1.2,0.8,1.9,0.8c0.7,0,1.4-0.4,1.8-0.9C60.5,51.4,60.6,50.8,60.6,50.2z M62.4,50.2
				c-0.1,1.1-0.6,2.1-1.4,2.8c-0.8,0.7-1.8,1-2.8,1c-1,0-2-0.4-2.7-1.1c-0.7-0.7-1.2-1.7-1.3-2.7c-0.1-1,0.3-2.1,1-2.9
				c0.7-0.8,1.8-1.3,2.9-1.4c1.1,0,2.3,0.4,3.1,1.2C62.1,47.9,62.5,49.1,62.4,50.2z"/>
		</g>
		<g>
			<path d="M15.8,54.8c0-0.7-0.3-1.3-0.7-1.9c-0.5-0.5-1.1-0.8-1.9-0.9c-0.7,0-1.5,0.2-2,0.7c-0.6,0.5-0.9,1.2-0.9,2
				c-0.1,1.6,1.4,2.9,2.9,2.8C14.7,57.5,15.9,56.1,15.8,54.8z M17.2,54.8c0,1-0.5,2-1.2,2.7c-0.7,0.7-1.7,1-2.7,1
				c-1,0-1.9-0.5-2.6-1.1c-0.7-0.7-1-1.6-1.1-2.6c0-0.9,0.4-1.9,1-2.6c0.7-0.7,1.6-1.1,2.6-1.2C15.2,50.8,17.3,52.6,17.2,54.8z"/>
		</g>
		<g>
			<path d="M15.7,37.4c0-0.7-0.4-1.3-0.8-1.7c-0.5-0.4-1.1-0.6-1.7-0.6C12,35,10.8,36,10.7,37.4c-0.1,0.7,0.2,1.4,0.6,1.9
				c0.5,0.5,1.2,0.8,1.9,0.9c0.7,0,1.4-0.3,1.9-0.8C15.6,38.7,15.8,38,15.7,37.4z M17.2,37.4c0,1-0.5,2.1-1.3,2.7
				c-0.7,0.7-1.7,1.1-2.7,1.1c-1,0-2-0.4-2.7-1c-0.7-0.7-1.2-1.7-1.3-2.7c-0.1-1,0.3-2.1,1.1-2.9c0.7-0.8,1.8-1.3,2.9-1.3
				c1.1,0,2.2,0.5,2.9,1.3C16.9,35.2,17.3,36.3,17.2,37.4z"/>
		</g>
		<g>
			<path d="M7.5,43.9c-0.1-1.3-1.1-2.5-2.5-2.5c-0.7,0-1.3,0.2-1.8,0.7c-0.5,0.5-0.8,1.1-0.9,1.8c0,0.7,0.3,1.4,0.8,1.9
				c0.5,0.5,1.2,0.8,1.9,0.8C6.5,46.5,7.6,45.2,7.5,43.9z M9.1,43.9c0,1.1-0.5,2.1-1.3,2.8c-0.8,0.7-1.8,1.1-2.8,1
				c-2,0-3.8-1.8-3.8-3.8c0-1,0.3-2,1.1-2.8C3,40.4,4,39.9,5,39.8c1.1,0,2.1,0.4,2.9,1.1C8.7,41.7,9.1,42.8,9.1,43.9z"/>
		</g>
	</g>
</g>
</svg>
