<svg width="120" height="131" viewBox="0 0 120 131" fill="none" xmlns="http://www.w3.org/2000/svg">
<g clip-path="url(#clip0)">
<path d="M54.2637 0.708252C45.5207 0.708252 37.1757 2.43641 29.5557 5.56692C56.5525 12.2246 76.5691 36.5038 76.5691 65.4575C76.5691 94.4679 56.4815 118.79 29.4136 125.391C37.0762 128.549 45.4638 130.306 54.2779 130.306C90.1884 130.306 119.303 101.296 119.303 65.5142C119.289 29.7186 90.1741 0.708252 54.2637 0.708252Z" fill="white" stroke="white" stroke-width="0.9984" stroke-miterlimit="10"/>
<path d="M96.998 84.7363C96.8558 83.079 96.0312 81.5775 94.8086 80.6284C93.6003 79.6793 92.1644 79.1836 90.6859 79.1411C87.7573 78.9852 84.6582 81.3508 84.3739 84.7363C84.2175 86.3795 84.7293 88.1501 85.9092 89.4958C87.075 90.8415 88.852 91.6631 90.6859 91.7198C92.534 91.7623 94.3679 90.9124 95.491 89.5242C96.6283 88.136 97.1401 86.3795 96.998 84.7363ZM99.8554 84.7363C99.7275 87.1302 98.576 89.3967 96.8274 90.8557C95.093 92.3431 92.9037 93.1505 90.6859 93.1788C88.4682 93.2355 86.222 92.3997 84.516 90.884C82.8101 89.3825 81.6585 87.1444 81.5164 84.7363C81.36 82.3566 82.1845 79.821 83.8763 77.9512C85.5538 76.0814 88.0985 74.934 90.6859 74.8915C93.2733 74.8348 95.8606 76.0105 97.524 77.9228C99.173 79.8352 100.012 82.3424 99.8554 84.7363Z" fill="black"/>
<path d="M66.6746 101.296C66.6035 100.616 66.5466 99.9498 66.3192 99.2982C66.0917 98.6466 65.7505 98.0375 65.2814 97.4993C64.3431 96.4369 62.9783 95.7144 61.4714 95.6153C59.9645 95.4878 58.4149 96.0402 57.2349 97.0885C56.055 98.1367 55.3584 99.709 55.3442 101.31C55.3157 102.91 55.9981 104.511 57.1638 105.588C58.3154 106.707 59.936 107.202 61.4572 107.117C64.6132 106.947 66.9589 104.029 66.6746 101.296ZM69.4894 101.296C69.4041 103.392 68.4374 105.389 66.9447 106.735C65.4377 108.095 63.419 108.761 61.4856 108.647C59.538 108.576 57.7325 107.656 56.4388 106.324C55.1451 104.978 54.4059 103.151 54.3917 101.296C54.3774 99.4399 55.0883 97.5842 56.3819 96.1961C57.6472 94.7937 59.538 93.9155 61.4998 93.8021C63.4617 93.6888 65.523 94.3829 67.03 95.7711C68.48 97.1593 69.5747 99.1849 69.4894 101.296Z" fill="black"/>
<path d="M42.0377 83.6032C41.9524 82.1725 41.2558 80.8835 40.2606 79.9627C39.2797 79.0278 37.986 78.4187 36.607 78.3621C35.228 78.2912 33.7922 78.7587 32.6833 79.7078C31.5744 80.6568 30.8494 82.0875 30.7641 83.6174C30.6504 85.1472 31.2333 86.7337 32.3279 87.8669C33.4226 89.0143 35.0006 89.6943 36.5928 89.6376C38.185 89.5809 39.692 88.8302 40.6587 87.6686C41.6396 86.5071 42.1372 85.0339 42.0377 83.6032ZM44.3834 83.6032C44.2838 85.6288 43.3598 87.5836 41.8813 88.8585C40.4028 90.1475 38.4836 90.8133 36.607 90.7425C34.7305 90.6858 32.8824 89.9634 31.5318 88.646C30.167 87.357 29.3283 85.5155 29.2288 83.589C29.1292 81.6626 29.8258 79.6653 31.1764 78.1779C32.5127 76.6764 34.5172 75.7273 36.607 75.6707C38.6826 75.5999 40.8293 76.4073 42.2936 77.9229C43.7578 79.4528 44.4829 81.5776 44.3834 83.6032Z" fill="black"/>
<path d="M63.3906 61.2221C65.2278 61.2221 66.7172 59.7381 66.7172 57.9074C66.7172 56.0768 65.2278 54.5928 63.3906 54.5928C61.5533 54.5928 60.064 56.0768 60.064 57.9074C60.064 59.7381 61.5533 61.2221 63.3906 61.2221Z" stroke="black" stroke-width="0.4992" stroke-miterlimit="10"/>
<path d="M79.0996 38.9543C79.0428 38.3452 78.8011 37.7928 78.4172 37.3253C78.0192 36.8579 77.4221 36.5604 76.7824 36.5037C75.4745 36.3338 74.0386 37.467 74.0244 38.9543C73.996 39.6768 74.2803 40.4133 74.8205 40.9091C75.3465 41.4191 76.0858 41.674 76.7824 41.6174C78.2324 41.5324 79.2418 40.1725 79.0996 38.9543ZM81.1041 38.9543C81.0473 40.0734 80.5355 41.1641 79.7251 41.8724C78.9148 42.5948 77.8202 42.9489 76.7966 42.8923C74.6926 42.8073 72.9297 41.0083 72.9155 38.9402C72.8871 37.9344 73.2567 36.8862 73.9675 36.1213C74.6783 35.3564 75.7019 34.8322 76.7966 34.7898C77.8912 34.7189 79.0285 35.1439 79.8531 35.9088C80.6918 36.6596 81.161 37.8353 81.1041 38.9543Z" fill="black"/>
<path d="M102.358 30.2994C102.386 29.3504 101.561 28.458 100.566 28.4438C99.5711 28.373 98.6044 29.2654 98.6186 30.2994C98.6044 31.3335 99.5569 32.2401 100.566 32.1551C101.547 32.1268 102.386 31.2485 102.358 30.2994ZM103.026 30.2994C103.026 30.9369 102.741 31.5743 102.286 32.0276C101.832 32.4667 101.178 32.7075 100.552 32.6934C99.2726 32.6792 98.1922 31.5318 98.2348 30.3136C98.1922 29.0812 99.2726 27.948 100.552 27.9339C101.178 27.9197 101.817 28.1463 102.286 28.5996C102.741 29.0104 103.026 29.6478 103.026 30.2994Z" fill="black"/>
<path d="M99.7702 23.9534C99.6422 23.3018 99.2157 22.6219 98.4196 22.5227C97.6661 22.3669 96.7421 23.0185 96.6852 23.9534C96.5857 24.8741 97.4955 25.7949 98.4196 25.6391C99.3437 25.5399 99.8981 24.6333 99.7702 23.9534ZM101.348 23.9534C101.291 24.7183 100.936 25.4266 100.381 25.894C99.827 26.3615 99.102 26.574 98.4338 26.5173C97.0833 26.4181 95.946 25.2991 95.9033 23.9534C95.7896 22.6219 96.9127 21.2337 98.4338 21.1345C99.1731 21.0779 99.955 21.347 100.524 21.8711C101.106 22.3811 101.391 23.2026 101.348 23.9534Z" fill="black"/>
<path d="M94.6523 18.4007C94.6239 17.4233 93.7709 16.6442 92.8184 16.6017C91.8517 16.545 90.9276 17.3808 90.9134 18.4007C90.8423 19.4205 91.7664 20.398 92.8184 20.3555C93.8704 20.3413 94.7234 19.3639 94.6523 18.4007ZM95.2494 18.4007C95.2352 19.7039 94.041 20.7521 92.8184 20.6954C91.5958 20.7096 90.4869 19.6614 90.4727 18.4007C90.3874 17.1541 91.5105 15.9501 92.8184 15.9501C94.1547 15.8509 95.3347 17.1116 95.2494 18.4007Z" fill="black"/>
<path d="M84.6155 16.2758C84.5445 15.8367 84.3028 15.4543 83.9616 15.2559C83.6204 15.0435 83.2508 15.0151 82.938 15.0718C82.3125 15.1993 81.8149 15.6384 81.7154 16.29C81.559 16.9274 82.0566 17.7915 82.938 17.919C83.3645 17.9898 83.8479 17.8482 84.189 17.5365C84.5729 17.2249 84.6866 16.7008 84.6155 16.2758ZM85.5254 16.2758C85.3548 17.6074 84.3454 18.7548 82.938 18.8964C82.2556 18.9672 81.5022 18.7548 80.9335 18.2873C80.3649 17.8198 79.9668 17.0833 79.9099 16.29C79.7535 14.6752 81.2889 13.0745 82.938 13.2586C84.6013 13.3578 85.7102 14.9301 85.5254 16.2758Z" fill="black"/>
<path d="M60.5189 49.9466C60.3767 48.6859 59.2963 47.8218 58.1448 47.7085C56.979 47.581 55.6285 48.5301 55.529 49.9466C55.3299 51.3348 56.6378 52.808 58.1448 52.7088C59.6659 52.6522 60.7037 51.179 60.5189 49.9466ZM62.4239 49.9466C62.367 51.0515 61.841 52.128 61.0307 52.808C60.2204 53.5021 59.1683 53.842 58.159 53.7995C57.1496 53.7712 56.1545 53.3746 55.4152 52.6805C54.676 51.9864 54.2069 50.9948 54.1358 49.9466C54.0647 48.8984 54.4343 47.7935 55.1736 46.9719C55.8986 46.1362 57.0075 45.5979 58.159 45.5696C59.2963 45.5271 60.5047 45.952 61.3008 46.8161C62.0969 47.6518 62.4807 48.8417 62.4239 49.9466Z" fill="black"/>
<path d="M14.8845 54.5928C14.8419 53.9128 14.6286 53.2329 14.1453 52.7088C13.6761 52.1988 12.9795 51.8589 12.2545 51.8164C10.776 51.6747 9.26906 53.0063 9.31171 54.5928C9.22641 56.1651 10.7333 57.5816 12.2545 57.4541C13.7899 57.4116 14.9982 55.981 14.8845 54.5928ZM16.2635 54.5928C16.2351 55.641 15.7659 56.6467 15.0125 57.3408C14.259 58.0349 13.2354 58.389 12.2545 58.3465C11.2593 58.3182 10.3211 57.8791 9.63868 57.185C8.97052 56.4909 8.57246 55.5418 8.55824 54.5786C8.54403 53.6154 8.92787 52.6521 9.59603 51.9439C10.2642 51.2214 11.2309 50.7823 12.2403 50.7398C14.2874 50.6123 16.363 52.4396 16.2635 54.5928Z" fill="black"/>
<path d="M14.8134 36.9146C14.7281 35.5264 13.4486 34.5915 12.2545 34.6057C11.0319 34.549 9.79503 35.5548 9.69552 36.9146C9.63865 37.5804 9.86611 38.2886 10.3353 38.8269C10.8044 39.3652 11.5152 39.6768 12.2545 39.7052C12.9937 39.7335 13.7045 39.3794 14.1737 38.8411C14.6428 38.2745 14.856 37.5804 14.8134 36.9146ZM16.3345 36.9146C16.2919 37.977 15.7943 38.9969 15.0266 39.6768C14.2732 40.3709 13.2638 40.7392 12.2545 40.7534C10.2215 40.8242 8.24545 39.0961 8.17437 36.9146C8.11751 35.8522 8.50135 34.7332 9.26903 33.9258C10.0225 33.1042 11.1314 32.6226 12.2687 32.6084C13.406 32.5801 14.5291 33.1042 15.2683 33.9116C16.0076 34.7473 16.3914 35.8522 16.3345 36.9146Z" fill="black"/>
<path d="M6.39734 43.5297C6.32626 42.2407 5.27425 41.0366 3.89527 40.9941C2.54472 40.8666 1.16574 42.0565 1.15152 43.5297C1.1373 44.2521 1.42163 44.9745 1.93342 45.4987C2.45942 45.9944 3.18446 46.3061 3.90949 46.2636C5.37377 46.2211 6.49686 44.8329 6.39734 43.5297ZM8.03222 43.5297C8.00379 44.6062 7.52043 45.6545 6.73854 46.3627C5.95664 47.071 4.91885 47.4535 3.89527 47.411C1.81969 47.3968 -1.46078e-06 45.5978 -1.46078e-06 43.5297C-0.113732 41.4757 1.69174 39.4784 3.89527 39.4501C4.9615 39.4218 6.05615 39.8326 6.85227 40.5833C7.64838 41.3341 8.07487 42.4531 8.03222 43.5297Z" fill="black"/>
</g>
<defs>
<clipPath id="clip0">
<rect width="120" height="131" fill="white"/>
</clipPath>
</defs>
</svg>
